<?xml version="1.0" standalone="no"?>
<!DOCTYPE svg PUBLIC "-//W3C//DTD SVG 20010904//EN"
 "http://www.w3.org/TR/2001/REC-SVG-20010904/DTD/svg10.dtd">
<svg version="1.0" xmlns="http://www.w3.org/2000/svg"
 width="720.000000pt" height="720.000000pt" viewBox="0 0 720.000000 720.000000"
 preserveAspectRatio="xMidYMid meet">
<metadata>
Created by potrace 1.11, written by Peter Selinger 2001-2013
</metadata>
<g transform="translate(0.000000,720.000000) scale(0.100000,-0.100000)"
fill="#000000" stroke="none">
<path d="M5075 6985 c-5 -2 -37 -11 -70 -20 -447 -128 -992 -382 -1275 -596
-125 -94 -201 -190 -313 -397 -101 -187 -211 -466 -216 -549 -1 -14 -38 -31
-146 -70 -115 -41 -172 -48 -390 -48 -195 0 -310 15 -411 56 -72 28 -217 104
-221 116 -3 7 -11 13 -19 13 -8 0 -23 9 -34 20 -11 11 -20 18 -20 15 0 -3 -11
5 -25 17 -20 17 -22 25 -14 41 8 14 7 22 -2 31 -9 8 -10 8 -5 -1 7 -12 -2 -43
-13 -43 -3 0 -27 19 -52 43 -34 31 -45 48 -43 67 6 63 15 103 29 123 8 12 14
24 13 27 -3 16 15 49 24 44 7 -4 8 -2 4 4 -16 26 103 208 199 304 31 32 77 71
102 87 l44 30 -32 16 c-87 45 -142 57 -279 61 -158 4 -228 -9 -336 -61 -39
-19 -75 -35 -81 -35 -15 0 -9 82 11 144 19 63 66 131 165 240 44 48 78 92 75
97 -3 5 -9 7 -14 4 -5 -3 -42 -6 -82 -6 -156 0 -362 -53 -474 -120 -108 -65
-179 -153 -234 -287 -35 -85 -70 -160 -71 -152 0 3 -3 14 -5 25 -13 54 -15
174 -4 229 18 94 49 150 165 299 25 32 45 63 45 67 0 12 -125 -23 -237 -66
-138 -53 -278 -159 -388 -294 -100 -124 -184 -344 -212 -555 -15 -114 -8 -444
11 -540 2 -11 7 -42 10 -68 4 -26 11 -71 17 -100 6 -29 12 -63 14 -77 7 -43
27 -182 30 -210 8 -60 50 -221 82 -314 60 -174 163 -366 279 -522 32 -44 80
-113 108 -154 27 -41 76 -110 109 -153 45 -60 57 -84 53 -101 -9 -38 -327
-193 -547 -267 -51 -17 -100 -32 -109 -34 -9 -2 -39 -10 -66 -18 -54 -16 -59
-17 -75 -17 -8 0 -8 -5 1 -15 7 -8 9 -15 6 -15 -13 0 37 -63 107 -136 37 -40
102 -95 143 -124 67 -47 407 -230 427 -230 14 0 7 -27 -10 -42 -52 -43 -367
-144 -507 -161 -66 -9 -64 -21 10 -76 151 -111 367 -189 574 -209 310 -28 633
34 924 179 43 21 80 39 82 39 2 0 4 -39 4 -87 l0 -88 -53 -72 c-72 -98 -123
-158 -185 -219 -28 -28 -52 -54 -52 -58 0 -9 205 1 275 14 150 28 314 84 523
179 124 55 159 61 234 35 l46 -15 1 -290 c0 -201 -3 -288 -10 -283 -8 4 -8 0
-2 -12 5 -11 8 -34 7 -51 -1 -18 -2 -65 -3 -104 -1 -44 -5 -68 -11 -64 -5 3
-10 1 -10 -4 0 -6 5 -11 12 -11 6 0 9 -3 5 -6 -3 -3 3 -16 14 -28 44 -45 78
-93 72 -100 -3 -3 1 -6 10 -6 9 0 17 -4 17 -9 0 -5 -6 -8 -12 -7 -22 3 -39 17
-33 27 3 5 -1 6 -10 3 -14 -6 -13 -8 5 -21 11 -8 20 -21 20 -29 0 -20 -17 -18
-24 3 -4 14 -4 13 -3 -2 2 -13 9 -19 23 -18 15 2 20 -4 19 -22 0 -33 -11 -40
-40 -25 -28 15 -46 6 -25 -13 10 -9 11 -9 6 1 -4 6 -3 12 3 12 22 0 19 -19 -9
-45 -17 -16 -30 -36 -30 -44 0 -9 9 -1 20 17 19 31 40 43 40 22 0 -5 -5 -10
-11 -10 -8 0 -8 -5 1 -15 7 -8 19 -15 27 -15 8 0 12 -4 9 -9 -3 -5 1 -11 9
-15 8 -3 17 0 21 6 4 7 3 8 -4 4 -24 -15 -11 14 13 30 33 22 27 38 -15 40 -22
1 -28 -1 -19 -7 12 -8 12 -11 -1 -19 -8 -5 -10 -10 -4 -10 5 0 15 5 22 12 7 7
12 8 12 2 0 -17 -21 -32 -39 -27 -23 6 -25 62 -2 64 9 1 23 2 31 3 8 1 24 -2
35 -7 l20 -8 -20 16 c-20 16 -29 68 -10 62 5 -3 9 -14 8 -26 -2 -12 1 -20 6
-17 13 9 21 -33 11 -60 -5 -13 -14 -24 -20 -24 -5 0 -10 -6 -10 -13 0 -7 -13
-26 -30 -42 -24 -23 -32 -26 -45 -15 -9 7 -15 8 -15 2 0 -6 5 -12 11 -14 12
-4 1 -38 -13 -38 -5 0 -6 4 -3 10 3 5 1 18 -4 27 -8 14 -10 10 -6 -19 3 -25 0
-38 -11 -42 -8 -3 -13 -9 -13 -13 3 -14 -13 -43 -20 -38 -4 2 -7 -6 -6 -18 2
-30 -16 -87 -28 -87 -5 0 -4 -6 2 -13 6 -8 8 -17 4 -20 -3 -4 -7 -32 -9 -62
l-3 -56 53 52 c30 29 73 65 97 80 41 28 43 29 63 12 20 -17 20 -17 7 0 -8 9
-11 20 -7 24 11 12 156 72 151 62 -3 -5 1 -6 9 -3 9 3 14 9 11 13 -2 4 2 8 11
8 9 0 13 -7 9 -21 -3 -12 2 -7 10 9 8 17 14 26 15 20 0 -5 4 -3 10 5 5 8 13
11 17 6 4 -4 -1 -14 -11 -22 -11 -8 -15 -14 -10 -14 6 0 15 5 22 12 8 8 15 8
26 -1 11 -9 16 -9 22 0 4 7 3 9 -3 6 -6 -4 -16 0 -24 9 -9 11 4 9 52 -9 96
-37 99 -39 99 -46 0 -4 12 -13 26 -19 14 -7 23 -16 20 -21 -3 -5 2 -11 13 -14
10 -2 31 -21 46 -41 24 -31 26 -39 14 -47 -11 -8 -10 -9 5 -7 15 2 29 -12 55
-59 20 -35 38 -63 41 -63 3 0 5 12 4 28 -1 15 4 33 10 41 8 11 8 13 -1 8 -8
-5 -11 -1 -8 15 8 41 9 163 1 176 -4 6 -9 22 -11 34 -6 28 -24 67 -44 91 -8 9
-10 17 -5 17 5 0 -2 7 -14 16 -19 13 -21 18 -10 32 11 14 10 15 -6 9 -12 -5
-22 -3 -27 5 -5 7 -12 13 -16 13 -24 1 -52 27 -46 43 6 15 5 16 -12 2 -15 -12
-17 -12 -10 -1 6 10 4 13 -6 9 -8 -3 -23 -2 -33 2 -17 6 -18 7 -3 13 9 3 17 2
17 -4 0 -6 6 -6 18 0 13 7 23 6 30 -1 9 -9 12 -8 13 2 0 10 3 8 8 -4 9 -24 43
-31 39 -9 -2 9 5 17 14 18 11 2 15 -2 11 -11 -3 -8 -2 -14 3 -13 12 3 48 -13
55 -24 4 -5 9 -5 13 2 4 6 -4 15 -18 21 -33 12 -33 19 -1 12 14 -2 25 -9 25
-14 0 -6 7 -8 15 -4 8 3 19 -2 24 -12 5 -9 12 -16 15 -14 17 7 17 0 1 -18 -10
-11 -13 -20 -8 -20 6 0 16 7 23 15 16 19 26 19 34 0 3 -8 0 -14 -6 -12 -6 1
-12 -3 -15 -10 -4 -12 21 -12 33 0 4 4 16 -1 27 -10 19 -17 20 -17 14 -1 -4
11 0 22 11 28 15 10 15 11 -3 7 -20 -4 -23 5 -26 81 -1 12 -7 22 -15 22 -8 0
-14 5 -14 11 0 5 4 8 9 4 5 -3 12 -1 16 5 6 9 -8 14 -28 11 -5 -1 -5 4 -1 11
13 21 13 39 1 35 -7 -3 -11 -10 -9 -16 1 -7 -2 -10 -8 -6 -8 5 -8 11 0 20 7 8
7 15 1 19 -5 3 -12 0 -15 -6 -3 -7 -3 -3 0 10 3 12 2 21 -3 20 -12 -4 -73 23
-73 33 0 4 -9 6 -20 4 -11 -2 -22 1 -25 6 -4 5 -11 6 -17 3 -7 -4 -8 -2 -4 5
6 8 -2 10 -26 6 -21 -3 -28 -2 -20 3 11 8 11 10 -2 15 -9 4 -16 2 -16 -3 0 -6
-7 -10 -15 -10 -8 0 -15 5 -15 11 0 8 -4 9 -13 0 -8 -6 -16 -9 -18 -7 -5 5
-55 17 -76 18 -7 1 -13 6 -13 11 0 5 7 7 14 4 10 -4 13 -1 9 9 -5 14 -3 14 16
3 11 -8 21 -18 21 -24 0 -5 5 -2 11 8 5 9 15 17 21 17 7 0 7 -5 -1 -14 -9 -11
-9 -16 0 -22 8 -5 9 -3 4 6 -6 9 -4 11 5 5 9 -6 11 -4 5 6 -5 8 1 6 12 -4 13
-11 23 -14 27 -8 4 6 14 8 24 5 13 -5 14 -4 4 4 -11 7 -10 11 5 17 10 5 23 7
28 5 6 -1 20 -3 33 -4 13 -1 28 -8 34 -16 8 -13 9 -13 5 1 -3 9 1 16 8 16 10
0 11 -5 4 -18 -12 -23 -11 -29 2 -29 5 0 8 4 5 9 -3 4 2 17 10 27 9 10 13 14
10 9 -2 -6 4 -11 14 -11 10 0 16 5 14 11 -3 5 2 1 12 -10 11 -13 15 -15 11 -5
-6 20 27 24 43 5 10 -12 16 -12 37 2 26 17 26 17 13 -6 -10 -19 -10 -22 1 -16
8 6 10 4 5 -6 -4 -8 -1 -6 7 4 19 23 27 22 22 -3 -2 -11 0 -18 5 -15 5 3 12 0
15 -6 4 -5 13 -8 21 -5 7 3 16 1 19 -4 4 -6 11 -10 18 -10 6 0 1 7 -11 16 -12
8 -22 21 -22 27 0 7 6 4 14 -5 7 -10 16 -15 19 -11 4 3 7 1 7 -5 0 -6 9 -9 20
-7 13 3 18 0 14 -7 -5 -7 -2 -8 7 -2 18 11 40 14 35 5 -3 -4 9 -7 27 -7 29 1
32 -2 31 -26 -1 -18 3 -25 10 -21 6 4 5 0 -2 -9 -10 -13 -10 -18 -1 -24 8 -5
9 -3 4 6 -5 9 -4 11 4 6 6 -4 9 -11 6 -16 -2 -4 5 -21 17 -36 l22 -29 -24 20
c-23 19 -24 19 -10 1 12 -16 12 -18 1 -11 -10 6 -12 4 -6 -5 6 -9 4 -11 -5 -5
-9 6 -11 4 -5 -5 6 -9 4 -11 -5 -5 -9 5 -11 4 -6 -4 4 -6 12 -9 17 -6 5 3 6
-2 3 -12 -5 -15 -4 -16 6 -3 9 12 11 12 8 1 -2 -8 -11 -15 -20 -17 -11 -1 -15
3 -11 13 3 8 -7 2 -23 -12 -16 -15 -28 -32 -26 -37 1 -5 -3 -6 -10 -2 -9 5 -9
2 1 -10 18 -22 -1 -48 -21 -27 -11 10 -10 11 5 6 19 -8 24 10 5 21 -7 5 -8 3
-3 -5 6 -10 3 -11 -14 -2 -17 10 -20 9 -15 -4 7 -18 -7 -20 -24 -3 -9 9 -12 9
-12 0 0 -7 5 -12 11 -12 5 0 7 -5 3 -11 -5 -8 -9 -8 -14 1 -5 9 -9 9 -14 1 -4
-6 -2 -11 5 -11 7 0 4 -7 -7 -16 -18 -14 -18 -15 6 -4 22 10 21 8 -5 -12 -32
-25 -82 -32 -82 -12 0 7 5 10 11 7 6 -4 5 1 -3 10 -16 20 -22 22 -18 6 1 -6
-6 -13 -15 -14 -10 -2 -18 2 -18 8 -1 7 -7 1 -16 -13 -14 -23 -14 -23 -9 -2 4
13 2 22 -5 22 -6 0 -9 -4 -6 -8 2 -4 0 -14 -6 -22 -8 -12 -9 -12 -4 2 3 10 0
20 -6 24 -7 5 -8 2 -3 -6 5 -9 4 -11 -3 -6 -8 4 -10 2 -6 -7 3 -8 1 -18 -5
-22 -7 -4 -8 1 -5 12 6 15 4 15 -10 -2 l-16 -20 6 20 c4 15 3 16 -4 6 -5 -7
-16 -10 -23 -6 -8 4 -3 -2 11 -14 21 -16 23 -22 12 -33 -11 -11 -12 -10 -7 5
8 19 -5 23 -21 7 -8 -8 -15 -6 -25 6 -12 16 -12 17 1 9 13 -8 13 -7 1 8 -7 9
-19 17 -25 16 -7 0 -6 -2 2 -6 6 -2 10 -8 7 -13 -3 -5 2 -15 11 -24 8 -9 12
-21 8 -27 -4 -7 -3 -9 3 -6 5 4 10 -7 10 -25 0 -17 7 -36 16 -43 18 -13 24
-31 8 -20 -5 3 -13 0 -17 -6 -5 -8 -3 -9 6 -4 9 5 10 2 5 -14 -3 -11 -2 -21 3
-21 9 0 12 12 14 68 2 37 10 40 37 13 19 -19 20 -19 39 0 12 11 22 14 24 8 7
-20 66 -20 77 -1 9 16 11 16 28 -1 17 -16 16 -18 -5 -39 -12 -12 -24 -19 -27
-16 -3 3 1 13 10 21 22 23 19 31 -6 13 -12 -8 -29 -12 -38 -9 -9 3 -1 -6 18
-21 19 -14 40 -26 45 -26 6 0 5 4 -2 8 -9 7 -8 13 7 27 20 17 20 17 16 -15 -2
-18 -1 -29 2 -26 3 3 13 -2 21 -12 10 -12 9 -8 -2 10 -20 34 -20 44 -1 28 9
-8 15 -8 15 -2 0 6 -6 13 -12 15 -10 4 -9 8 2 17 13 10 12 11 -3 6 -12 -4 -17
-2 -14 6 2 7 13 12 24 10 23 -3 34 16 28 48 -3 14 0 20 8 17 7 -2 11 -16 11
-30 -1 -15 2 -24 7 -22 4 3 9 2 12 -2 2 -5 2 -2 0 5 -1 8 3 12 9 9 7 -2 12
-11 10 -20 -3 -18 13 -31 28 -22 8 5 7 12 -1 22 -11 12 -8 13 17 8 26 -5 27
-5 6 5 -13 5 -28 8 -33 4 -7 -4 -29 34 -29 50 0 9 134 -1 137 -10 2 -7 -7 -10
-26 -8 -31 4 -51 -20 -26 -30 9 -3 12 0 9 9 -4 9 1 12 13 10 10 -2 21 -4 25
-4 4 -1 4 -13 2 -28 l-5 -27 22 27 c12 16 19 31 15 34 -3 4 -6 1 -6 -6 0 -7
-4 -10 -9 -7 -4 3 -7 17 -6 31 2 14 -1 23 -6 19 -5 -3 -9 0 -9 6 0 6 8 10 18
8 11 -2 16 -11 14 -23 -3 -17 -1 -16 16 5 11 14 23 22 27 18 4 -4 0 -14 -9
-23 -9 -9 -16 -21 -16 -27 0 -6 9 0 20 13 10 13 19 19 20 14 0 -6 -5 -16 -12
-23 -9 -9 -9 -12 0 -12 7 0 12 5 12 11 0 5 5 7 11 3 8 -5 8 -1 0 14 -17 32
-12 40 8 15 16 -20 21 -20 37 -8 18 13 18 14 -2 9 -13 -3 -25 0 -30 8 -13 19
-12 59 1 55 5 -2 10 -13 10 -24 0 -28 10 -38 12 -11 1 11 4 22 7 25 7 7 26 -6
26 -18 0 -6 -4 -7 -10 -4 -5 3 -10 1 -10 -5 0 -17 25 -6 26 11 1 27 16 59 25
54 5 -4 6 2 2 12 -6 16 -5 16 10 4 17 -13 16 -15 -3 -33 -11 -10 -20 -24 -20
-30 0 -7 12 2 26 20 15 17 31 29 36 26 5 -4 -9 -23 -31 -44 -42 -40 -49 -50
-30 -50 5 0 7 5 3 12 -5 8 -2 9 10 5 10 -4 20 -7 22 -7 2 0 4 -4 4 -10 0 -5
-5 -9 -12 -7 -6 1 -14 -6 -16 -15 -2 -10 1 -18 7 -18 6 0 7 7 4 17 -4 10 -2
14 5 9 18 -11 26 16 8 29 -15 11 -13 16 19 44 20 17 41 28 47 24 8 -4 4 -10
-10 -16 -12 -6 -22 -16 -22 -24 0 -8 -4 -11 -10 -8 -5 3 -10 1 -10 -4 0 -17
20 -13 26 4 4 9 15 20 25 25 15 8 17 6 16 -10 -1 -13 -6 -19 -15 -15 -7 2 -11
1 -7 -4 3 -5 0 -11 -7 -13 -7 -3 -5 -7 6 -11 9 -4 15 -3 11 2 -3 5 0 11 7 13
18 6 19 41 2 60 -9 9 -23 14 -32 11 -14 -5 -14 -3 2 15 11 12 16 22 12 22 -4
0 0 7 9 16 9 9 13 24 10 33 -11 28 -10 33 4 39 9 3 11 0 7 -7 -4 -7 -3 -18 4
-26 8 -10 8 -19 1 -33 -6 -11 -7 -22 -4 -26 3 -3 1 -6 -5 -6 -7 0 -12 -5 -12
-12 0 -8 6 -6 16 4 16 15 18 15 36 -5 11 -12 17 -16 13 -9 -3 6 -1 12 4 12 18
0 13 13 -19 50 -39 45 -39 62 0 25 17 -16 30 -25 30 -19 0 13 -61 59 -79 59
-9 0 -17 8 -19 18 -2 9 2 17 8 17 6 0 8 -6 4 -13 -4 -6 -3 -9 1 -4 5 4 19 0
32 -8 13 -9 23 -11 23 -5 0 5 -5 10 -11 10 -5 0 -7 4 -4 10 4 6 -1 7 -12 4
-16 -5 -16 -4 -2 8 16 13 23 51 7 42 -5 -3 -5 -10 -2 -16 4 -6 1 -9 -5 -7 -21
7 -17 23 7 34 12 5 22 13 22 18 0 4 -9 3 -19 -3 -26 -14 -36 -13 -24 3 7 8 4
17 -7 28 -14 13 -18 13 -29 1 -11 -11 -10 -13 4 -10 10 2 20 -3 23 -11 3 -10
0 -11 -9 -5 -12 6 -12 5 0 -9 24 -30 6 -28 -22 3 -25 26 -26 30 -11 38 14 8
12 9 -9 9 -15 0 -27 -3 -27 -8 0 -5 -5 -9 -11 -9 -5 0 -7 5 -4 10 6 9 -8 14
-28 11 -5 -1 -7 4 -4 11 2 7 11 11 18 9 8 -1 24 -4 37 -6 19 -2 20 0 10 13
-11 13 -10 15 4 9 10 -3 23 0 30 7 7 7 21 17 32 23 15 8 16 11 3 16 -10 4 -22
-4 -32 -19 -16 -25 -17 -25 -38 -7 -11 10 -17 13 -14 6 4 -6 4 -18 1 -27 -5
-12 -11 -13 -24 -6 -15 8 -22 5 -34 -12 -9 -13 -16 -17 -16 -9 0 15 15 28 74
67 40 27 96 40 96 24 0 -6 5 -10 11 -10 5 0 8 3 5 8 -2 4 9 8 25 8 16 1 29 -3
29 -8 0 -5 -5 -6 -10 -3 -6 3 -13 -1 -16 -9 -3 -9 -10 -13 -15 -10 -5 3 -6 -3
-2 -12 4 -11 8 -13 11 -6 2 7 8 10 13 7 5 -4 6 2 2 11 -4 12 -3 15 5 10 7 -4
15 -1 18 8 3 9 9 14 13 11 4 -2 26 -5 49 -6 23 -2 42 -7 42 -12 0 -5 6 -7 14
-4 7 3 26 -1 41 -9 15 -8 31 -14 37 -14 19 0 119 -71 113 -80 -4 -6 -1 -9 7
-8 7 2 12 -2 11 -9 -2 -7 3 -10 10 -8 6 2 24 -12 40 -32 l27 -37 -2 35 c-2 19
-7 37 -12 40 -4 4 -9 20 -9 37 -1 17 -5 28 -9 26 -5 -3 -9 0 -9 5 -1 6 -3 14
-4 19 -2 4 -6 17 -10 30 -4 12 -11 22 -16 22 -5 0 -9 7 -9 15 0 8 -4 15 -8 15
-5 0 -14 10 -21 23 -7 13 -26 31 -42 41 -16 9 -29 24 -29 32 0 8 -3 13 -7 12
-13 -4 -73 24 -73 33 0 5 -3 8 -7 8 -25 -4 -43 2 -37 13 4 6 3 8 -3 5 -5 -3
-27 -1 -49 4 -70 17 -78 19 -124 25 -25 3 -48 8 -51 10 -4 2 -29 4 -57 5 -31
1 -49 6 -45 12 4 6 1 7 -8 1 -20 -13 -30 -12 -63 4 -41 20 -100 81 -123 128
-31 60 -53 169 -57 272 -3 107 -7 102 94 121 400 75 822 260 1106 485 36 29
52 34 120 40 44 3 88 8 99 10 11 2 43 7 70 10 74 10 267 60 369 96 581 205
996 664 1243 1373 50 145 64 197 50 194 -7 -1 -11 9 -9 26 4 28 3 28 -25 14
-48 -24 -139 -42 -268 -52 l-80 -7 25 29 c33 37 99 111 180 203 82 93 88 99
130 144 l34 36 -284 -2 -285 -3 4 145 c13 510 6 598 -73 900 -25 96 -91 240
-150 328 -49 74 -159 192 -221 238 -22 16 -42 32 -45 35 -3 3 -18 13 -35 21
-17 8 -29 21 -27 29 2 8 0 11 -3 7 -11 -11 -47 11 -39 24 4 6 3 8 -4 4 -6 -3
-18 1 -26 10 -9 8 -16 12 -16 7 0 -4 -4 -3 -8 2 -4 6 -25 19 -46 30 -22 11
-44 25 -50 30 -6 6 -36 21 -66 35 -69 31 -63 25 -65 60 -1 16 -4 32 -7 35 -3
4 -5 -9 -4 -28 2 -26 -1 -34 -11 -30 -7 3 -10 9 -7 14 3 5 -2 6 -11 3 -8 -4
-21 -1 -29 5 -8 7 -22 14 -32 16 -22 5 -139 44 -169 56 -20 8 -49 16 -82 24
-87 21 -109 28 -115 38 -6 9 -8 9 -8 0 0 -7 -9 -13 -19 -13 -11 0 -23 -5 -26
-10 -4 -6 -11 -8 -16 -5 -5 4 -9 1 -9 -4 0 -6 -3 -10 -7 -9 -5 1 -26 -7 -48
-17 -96 -44 -126 -57 -142 -60 -10 -2 -20 -4 -23 -5 -3 -1 -8 -2 -12 -1 -5 0
-8 -3 -8 -7 0 -5 -6 -9 -12 -9 -7 -1 -28 -6 -45 -11 -38 -12 -50 -1 -31 27 16
23 105 103 113 101 3 0 19 14 34 31 18 20 34 28 42 24 7 -5 10 -4 6 2 -6 10
-4 12 96 91 56 45 78 65 65 61 -2 0 -7 -2 -13 -4z m-1967 -4864 c170 -32 288
-38 496 -28 40 2 40 2 42 -38 6 -132 60 -282 136 -379 25 -31 28 -40 17 -48
-11 -8 -10 -9 3 -5 16 6 93 -56 93 -74 0 -5 7 -14 16 -21 24 -20 45 -61 41
-80 -5 -25 -18 -22 -26 5 l-6 22 -15 -25 c-8 -14 -12 -33 -8 -44 3 -12 1 -16
-6 -12 -6 4 -9 2 -6 -6 4 -9 -2 -14 -16 -15 -16 -1 -18 1 -10 11 6 7 8 16 4
19 -3 4 0 7 7 7 7 0 10 3 7 7 -4 3 0 17 9 30 8 13 13 30 10 36 -3 7 -5 6 -5
-3 -1 -9 -11 -16 -23 -17 -21 -2 -21 0 9 27 24 22 28 30 17 34 -8 3 -13 2 -10
-2 3 -5 -8 -20 -23 -35 l-28 -26 -20 22 c-34 39 -44 55 -48 77 -2 13 -7 25
-11 29 -4 3 -4 -2 -1 -12 4 -11 1 -20 -8 -23 -8 -4 -15 -11 -15 -16 0 -6 6 -5
15 2 9 8 15 9 15 2 0 -6 -5 -14 -10 -17 -6 -4 -4 -12 5 -21 19 -20 19 -31 0
-31 -9 0 -14 5 -12 10 4 13 -44 67 -61 67 -7 0 -10 4 -7 10 4 6 -1 7 -11 3
-15 -5 -12 -9 14 -21 17 -9 38 -30 47 -48 19 -40 19 -41 0 -41 -10 0 -13 6
-10 17 3 9 -3 25 -15 35 -11 10 -20 14 -20 9 0 -5 -5 -2 -11 6 -10 13 -10 13
-6 -1 4 -12 -2 -16 -22 -16 -20 0 -27 5 -27 18 1 10 -2 17 -6 16 -12 -4 -50
54 -44 69 3 8 2 12 -4 9 -6 -3 -10 -11 -10 -16 0 -16 43 -69 52 -63 4 3 8 -2
8 -10 0 -18 -16 -21 -25 -6 -3 6 -11 10 -18 10 -6 0 -2 -7 9 -15 10 -8 14 -15
7 -15 -6 0 -19 8 -29 17 -16 16 -16 16 -9 -7 7 -22 6 -23 -8 -12 -9 8 -13 21
-10 30 4 13 2 12 -10 -3 -16 -20 -16 -20 -42 8 -14 15 -30 25 -34 22 -5 -2
-11 5 -14 16 -3 12 -10 18 -16 15 -5 -3 -12 1 -14 9 -4 13 -5 13 -3 0 0 -9 5
-16 10 -15 5 1 17 -18 27 -40 13 -30 23 -40 34 -36 18 7 47 -3 40 -14 -6 -10
-53 -4 -70 10 -8 7 -17 20 -20 31 -4 10 -13 19 -21 19 -8 0 -12 5 -9 10 3 6 1
10 -4 10 -18 0 -12 -19 9 -30 11 -6 20 -17 20 -25 0 -8 5 -15 11 -15 5 0 7 -5
4 -10 -9 -14 -24 -3 -35 24 -7 18 -8 16 -8 -12 1 -19 7 -36 14 -39 10 -4 10
-8 1 -18 -12 -13 -31 -10 -23 4 6 10 -11 37 -19 29 -4 -3 -8 -13 -9 -21 -1 -9
-12 -24 -25 -34 l-23 -18 21 -19 c20 -18 20 -18 16 3 -4 24 5 27 24 9 11 -11
12 -10 6 2 -5 8 -5 12 -1 8 8 -7 9 -20 1 -15 -2 1 -12 -8 -21 -21 l-16 -23
-24 22 c-18 17 -27 19 -37 11 -10 -9 -18 -8 -32 2 -13 9 -15 15 -6 20 6 4 18
2 26 -4 11 -10 15 -10 15 -1 0 7 3 10 8 8 4 -2 17 7 29 20 23 24 17 33 -6 11
-10 -11 -12 -10 -11 2 4 28 0 41 -10 35 -5 -3 -10 -1 -10 4 0 6 4 11 8 11 11
0 34 51 27 58 -3 4 -8 -4 -12 -16 -3 -12 -9 -22 -13 -22 -5 0 -12 -9 -15 -20
-4 -11 -11 -18 -16 -15 -5 3 -6 -2 -3 -12 5 -15 2 -14 -13 3 -10 12 -23 29
-28 39 -10 16 -11 15 -12 -4 -1 -12 2 -19 8 -16 5 4 9 2 9 -4 0 -19 -20 -22
-27 -5 -6 16 -7 16 -13 -1 -4 -12 -9 -15 -13 -8 -4 6 0 19 9 27 8 9 11 16 5
16 -5 0 -14 -7 -19 -16 -6 -11 -11 -13 -16 -5 -11 17 -23 13 -51 -14 -28 -29
-27 -27 -19 -49 5 -14 9 -14 22 -4 13 11 14 10 9 -7 -4 -11 -2 -27 3 -35 7
-11 10 -11 10 -2 0 7 5 10 11 6 8 -5 8 -9 -1 -14 -13 -8 -90 27 -90 42 0 5 -4
7 -9 4 -10 -7 -22 6 -50 57 -12 21 -17 36 -11 32 5 -3 10 -1 10 4 0 6 -5 11
-12 11 -6 0 -3 7 8 15 12 10 14 14 5 13 -11 -2 -15 9 -16 39 -1 26 2 40 8 36
6 -4 7 -1 1 8 -4 8 -7 61 -6 119 5 225 10 395 11 399 1 2 8 1 16 -3 8 -3 63
-14 123 -25z m358 -608 c-4 -4 -11 -1 -16 7 -16 25 -11 35 7 17 9 -9 13 -20 9
-24z m353 -58 c0 -5 -6 -1 -14 9 -14 19 -21 12 -16 -16 2 -14 -16 -9 -29 8
-11 12 -11 15 1 12 15 -3 16 14 4 47 -5 12 4 7 23 -15 17 -19 31 -39 31 -45z
m-261 37 c8 8 11 5 9 -11 -1 -15 -6 -20 -17 -16 -26 11 -35 10 -33 -2 1 -6 -5
-17 -14 -25 -15 -11 -16 -11 -10 4 7 20 -10 35 -25 20 -6 -6 -4 -15 7 -25 9
-9 16 -19 15 -22 0 -3 0 -9 0 -13 0 -5 14 -8 30 -8 17 0 30 3 30 8 0 4 -5 8
-11 8 -5 0 -8 4 -4 10 10 15 34 0 28 -18 -4 -13 -2 -12 10 3 8 11 14 22 12 25
-2 3 5 6 16 6 19 0 19 -1 -2 -16 -16 -13 -18 -17 -5 -17 9 0 16 4 16 9 0 5 5
6 11 3 6 -4 8 -14 5 -24 -5 -12 -2 -11 9 3 11 14 15 16 15 5 0 -22 -36 -41
-49 -25 -7 8 -39 12 -101 11 -88 -1 -122 6 -107 22 5 4 12 2 16 -6 7 -10 10
-9 14 3 4 9 12 16 18 16 8 0 9 -4 0 -13 -8 -10 -7 -14 4 -14 8 0 12 4 9 9 -3
4 0 8 5 8 6 0 11 -5 11 -12 0 -6 3 -8 6 -5 10 10 -26 59 -39 54 -7 -3 -11 -10
-9 -16 1 -7 -2 -9 -9 -5 -7 4 -9 3 -6 -2 3 -6 -10 -9 -31 -8 -48 2 -48 2 -34
16 8 8 15 8 26 -1 11 -9 17 -8 31 5 16 16 16 19 1 29 -9 7 -16 16 -16 20 0 4
7 1 17 -6 13 -11 17 -11 20 -1 3 6 10 9 16 5 7 -4 24 -8 40 -9 25 -2 32 6 27
31 -1 5 7 2 17 -8 14 -12 22 -14 31 -5z m149 -25 c-1 -13 3 -21 11 -19 6 1 12
-2 12 -8 0 -10 -16 -15 -35 -10 -5 1 -16 3 -22 3 -7 0 -13 5 -13 10 0 5 10 7
23 4 21 -6 21 -6 3 8 -18 13 -15 20 7 16 4 0 7 4 7 9 0 14 -11 12 -34 -5 -26
-20 -31 -19 -33 5 -1 11 2 20 8 20 5 0 9 -5 9 -12 0 -8 6 -6 17 5 21 20 44 6
40 -26z m-87 18 c15 -18 0 -20 -20 -2 -12 10 -12 9 -1 -5 14 -19 12 -22 -13
-12 -13 5 -14 9 -5 20 15 18 24 18 39 -1z m-481 -9 c13 -16 4 -49 -12 -39 -6
3 -7 1 -3 -5 4 -7 3 -12 -3 -12 -19 0 -21 19 -4 29 10 5 15 12 12 15 -3 3 -16
-4 -28 -15 -31 -29 -41 -14 -10 16 29 28 33 29 48 11z m94 -38 c-2 -5 0 -8 6
-8 5 0 12 9 16 19 4 12 12 18 20 14 8 -3 12 -9 9 -14 -3 -5 -9 -7 -13 -5 -4 3
-8 -1 -8 -8 0 -8 7 -12 16 -9 14 4 14 4 1 -6 -8 -6 -23 -8 -32 -5 -15 5 -68
-40 -68 -58 0 -5 -5 -8 -11 -8 -5 0 -7 5 -4 10 3 6 1 10 -4 10 -6 0 -11 -5
-11 -12 0 -6 -3 -8 -7 -4 -8 7 -9 11 -12 37 0 6 -8 9 -16 5 -8 -3 -15 -2 -15
3 0 5 11 12 25 15 14 4 25 13 25 20 0 15 27 29 40 21 5 -3 11 -1 15 5 4 6 11
5 19 -3 8 -6 12 -15 9 -19z m423 2 c-1 -8 4 -15 11 -15 6 0 15 -3 19 -7 12
-13 23 -9 45 13 16 16 23 18 34 9 15 -13 39 -4 30 11 -4 5 -4 9 -1 9 3 0 10
-8 15 -18 7 -14 5 -18 -10 -20 -42 -4 -49 -6 -49 -13 0 -4 -9 -6 -20 -4 -11 2
-20 -1 -20 -6 0 -6 -4 -8 -9 -4 -5 3 -12 1 -16 -4 -6 -11 27 -7 47 5 7 5 8 2
3 -7 -6 -11 -5 -12 6 -1 7 6 17 12 23 12 5 0 2 -6 -8 -13 -16 -12 -16 -14 -2
-14 15 0 21 10 17 31 -1 5 5 6 14 2 9 -3 13 -2 10 4 -7 12 -3 12 19 4 9 -3 14
-10 11 -14 -8 -13 26 -42 42 -36 8 3 11 1 8 -4 -3 -6 -2 -10 3 -10 11 0 34 49
27 60 -3 4 -2 15 1 24 6 15 8 15 20 -1 13 -17 15 -17 28 0 13 17 15 14 22 -25
5 -24 8 -55 7 -70 0 -16 2 -26 6 -23 5 2 7 -20 6 -50 -2 -38 1 -53 9 -48 6 3
6 1 -1 -7 -9 -10 -9 -17 -2 -26 8 -10 14 -9 29 3 11 9 17 19 15 23 -2 3 7 7
19 8 14 1 23 -4 23 -13 0 -8 -7 -15 -14 -15 -9 0 -11 5 -7 13 4 6 3 8 -1 4
-13 -11 -15 -37 -4 -37 6 0 7 -5 4 -11 -5 -6 -11 -4 -19 7 -11 15 -13 15 -13
0 0 -9 5 -16 10 -16 6 0 7 -3 4 -6 -4 -4 -13 -2 -21 5 -11 9 -18 7 -34 -14
-12 -16 -22 -21 -24 -13 -3 8 -6 6 -11 -4 -4 -12 -1 -16 13 -13 10 2 26 -3 37
-11 17 -14 17 -15 -2 -30 -11 -8 -19 -20 -17 -25 1 -5 -3 -9 -9 -9 -6 0 -8 8
-5 18 5 14 4 14 -9 -2 -8 -11 -15 -15 -15 -10 0 6 5 15 12 22 9 9 7 11 -10 7
-16 -3 -20 0 -15 13 3 10 1 13 -4 7 -12 -15 -33 -17 -33 -3 0 9 -3 8 -10 -2
-5 -9 -5 -19 2 -28 8 -9 8 -16 0 -24 -6 -6 -8 -17 -5 -24 3 -8 -1 -14 -8 -14
-10 0 -11 -2 -2 -8 8 -5 9 -13 3 -22 -8 -13 -10 -12 -10 2 0 9 -5 20 -12 24
-8 5 -9 2 -5 -9 3 -9 2 -19 -4 -22 -5 -4 -8 -1 -7 7 2 7 -4 12 -12 10 -10 -1
-9 2 4 13 11 8 15 15 9 15 -6 0 -16 -6 -22 -14 -9 -10 -8 -16 4 -26 15 -13 12
-30 -6 -30 -6 0 -8 4 -5 8 7 12 -12 38 -21 29 -4 -5 -1 -12 6 -16 9 -6 10 -11
2 -15 -6 -4 -11 -2 -11 5 0 8 -3 9 -13 0 -8 -6 -17 -8 -20 -4 -4 3 -10 -2 -13
-11 -5 -14 -9 -15 -16 -4 -7 10 -8 9 -4 -4 3 -10 1 -18 -4 -18 -9 0 -14 15
-11 33 1 5 -3 6 -9 2 -6 -3 -8 -10 -6 -14 3 -4 -1 -8 -9 -8 -8 0 -11 5 -8 11
3 6 3 8 -2 4 -4 -4 -14 -3 -22 3 -9 8 -17 8 -25 2 -7 -6 -21 -9 -31 -8 -10 2
-14 -1 -11 -7 4 -6 3 -8 -2 -5 -6 3 -16 2 -24 -4 -10 -5 -11 -9 -3 -9 7 0 10
-7 7 -15 -4 -8 -10 -12 -15 -9 -5 3 -6 10 -3 16 4 7 2 8 -5 4 -9 -6 -9 -11 0
-22 6 -8 14 -12 17 -9 3 2 11 -3 19 -13 10 -13 12 -13 8 -2 -4 11 1 16 15 16
24 0 26 -9 6 -25 -12 -10 -20 -9 -40 4 -24 16 -52 13 -41 -5 3 -5 1 -11 -5
-15 -5 -3 -10 0 -11 7 -1 7 -2 28 -4 46 -1 18 1 35 6 38 5 3 6 -2 3 -10 -3 -9
-2 -16 4 -16 16 0 34 28 26 41 -4 7 -3 9 4 5 6 -3 13 -2 17 3 3 5 14 8 25 6
11 -2 24 4 30 13 5 10 10 12 10 5 0 -7 5 -13 11 -13 5 0 8 4 5 8 -3 5 1 9 9 9
8 0 13 -5 12 -10 -1 -6 12 -11 28 -12 31 -2 99 40 90 56 -9 14 30 30 43 17 17
-17 43 9 38 38 -5 26 16 44 44 37 25 -7 46 23 30 42 -7 8 -10 16 -6 16 3 1 11
3 16 4 6 1 13 3 17 4 3 0 -2 10 -11 20 -10 11 -19 28 -21 38 -2 10 -4 19 -5
21 -2 1 -3 5 -4 10 -1 4 -5 13 -9 20 -5 6 -6 16 -2 21 6 11 -13 25 -37 27 -10
1 -20 3 -23 4 -3 1 -18 4 -35 5 -16 1 -35 3 -40 4 -6 0 -22 13 -36 28 -19 21
-27 24 -37 14 -9 -10 -8 -11 6 -6 19 8 24 -10 6 -21 -8 -4 -7 -9 2 -15 8 -5 9
-9 3 -9 -11 0 -39 28 -39 39 0 3 -5 5 -11 5 -6 -1 -10 9 -8 22 1 13 -2 25 -7
25 -5 1 -15 2 -21 3 -7 1 -12 8 -10 17 1 11 -6 16 -28 16 -21 0 -29 -4 -26
-13 3 -8 0 -11 -10 -7 -7 3 -14 10 -14 16 0 6 -6 2 -14 -8 -8 -11 -12 -23 -10
-27 7 -10 -8 -10 -24 1 -11 6 -8 12 10 27 32 25 146 28 144 4z m217 3 c-3 -7
-9 -13 -13 -13 -4 0 -7 -8 -6 -17 0 -10 -3 -19 -9 -20 -5 -2 -10 5 -10 15 1 9
-4 20 -10 25 -13 9 7 23 33 23 12 0 18 -5 15 -13z m-418 -13 c3 -6 -1 -7 -9
-4 -18 7 -21 14 -7 14 6 0 13 -4 16 -10z m-128 -25 c0 -8 -4 -12 -9 -9 -5 3
-6 10 -3 15 9 13 12 11 12 -6z m825 -119 c7 5 8 2 4 -5 -5 -7 -14 -10 -21 -7
-18 7 -27 -5 -14 -20 7 -8 7 -14 -1 -19 -5 -3 -10 -1 -10 5 0 6 -5 8 -11 5 -6
-5 -4 -12 8 -22 17 -13 16 -13 -4 -3 -28 13 -28 15 -3 42 11 12 20 29 20 37 1
13 2 13 11 -2 6 -9 15 -14 21 -11z m62 -16 c16 12 16 11 5 -13 -7 -15 -16 -27
-21 -27 -5 0 -6 5 -3 10 3 6 3 10 -2 11 -4 0 -16 2 -26 4 -9 2 -15 -1 -11 -6
3 -5 -2 -12 -11 -15 -13 -5 -13 -9 -3 -18 7 -6 11 -10 9 -9 -2 2 -10 -2 -17
-8 -9 -7 -18 -7 -31 0 -17 11 -17 11 2 9 11 -2 20 2 20 9 0 6 3 15 7 19 4 4 3
13 -4 21 -8 11 -7 12 5 8 8 -4 21 0 28 8 12 12 15 12 25 -1 10 -14 14 -14 28
-2z m-1401 -36 c-4 -13 -26 -11 -30 3 -2 6 4 10 14 9 10 -2 17 -7 16 -12z
m1257 6 c0 -5 -5 -10 -11 -10 -5 0 -7 5 -4 10 3 6 8 10 11 10 2 0 4 -4 4 -10z
m145 -6 c14 19 16 18 50 -15 33 -32 47 -58 24 -44 -12 8 -62 -42 -54 -55 3 -4
-2 -13 -9 -19 -12 -10 -14 -6 -12 25 1 21 8 40 15 42 9 3 11 0 7 -9 -4 -8 2
-3 13 10 24 27 19 46 -10 31 -24 -14 -26 5 -1 19 15 9 16 10 0 11 -9 0 -20 -9
-23 -21 -6 -19 -7 -20 -20 -2 -7 10 -17 15 -21 10 -4 -4 -2 -7 5 -7 7 0 9 -5
6 -11 -5 -6 -12 -4 -20 8 -19 26 2 51 21 26 13 -17 15 -17 29 1z m-1405 -34
c0 -5 -4 -10 -10 -10 -5 0 -10 5 -10 10 0 6 5 10 10 10 6 0 10 -4 10 -10z
m1388 -14 c24 1 26 -16 2 -24 -8 -3 -10 0 -6 9 4 8 0 5 -8 -5 -15 -18 -20 -15
-17 9 1 6 -6 1 -14 -9 -8 -11 -15 -15 -15 -10 0 6 -7 11 -15 11 -8 0 -12 -4
-9 -9 3 -4 0 -8 -6 -8 -7 0 -9 7 -6 16 3 8 2 12 -3 9 -12 -6 -10 -45 1 -45 4
0 8 -5 8 -11 0 -8 -5 -8 -15 1 -12 10 -15 10 -16 -1 0 -11 -2 -11 -6 -1 -4 10
-8 10 -19 1 -8 -6 -14 -8 -14 -5 0 4 -5 4 -10 1 -6 -4 -8 -11 -4 -16 4 -6 11
-6 20 2 23 19 26 5 4 -19 -12 -12 -16 -22 -11 -22 6 0 8 -7 5 -15 -5 -13 -9
-13 -22 -3 -12 10 -14 10 -8 1 5 -9 2 -11 -8 -7 -13 5 -12 9 7 25 l22 19 -24
20 c-19 17 -21 23 -11 35 10 12 16 13 27 4 10 -9 18 -8 33 6 11 10 17 21 15
25 -8 13 27 21 40 10 9 -8 14 -6 19 5 4 11 11 13 23 7 10 -4 28 -7 41 -6z m56
-1 c-4 -8 -11 -12 -16 -9 -6 4 -5 10 3 15 19 12 19 11 13 -6z m-63 -54 c-14
-15 -17 -15 -29 -1 -11 13 -11 12 -3 -7 7 -14 8 -24 1 -28 -5 -3 -10 -2 -10 2
0 5 -7 18 -16 29 -14 18 -15 18 -4 -5 8 -16 9 -21 1 -17 -7 5 -9 1 -5 -9 4 -9
9 -13 12 -11 7 7 32 -14 32 -26 0 -6 -6 -6 -14 1 -7 6 -20 9 -28 6 -11 -5 -14
3 -12 37 1 24 3 43 3 44 1 0 21 1 45 1 41 1 43 0 27 -16z m81 -11 c-1 -7 3
-18 9 -26 9 -11 8 -19 -6 -34 -10 -11 -15 -20 -11 -20 4 0 1 -6 -6 -14 -7 -8
-17 -13 -23 -13 -14 3 -33 21 -29 28 2 3 -3 6 -11 6 -8 0 -13 -3 -12 -6 1 -3
-4 -20 -11 -37 -9 -22 -19 -30 -34 -29 -12 1 -24 7 -26 13 -2 8 -13 6 -32 -8
l-27 -20 0 26 c0 18 3 22 10 15 6 -6 15 -11 21 -11 5 0 1 6 -10 14 -12 9 -23
11 -30 5 -6 -5 -14 -6 -17 -2 -4 3 -7 0 -7 -7 0 -9 -5 -7 -15 6 -11 14 -14 15
-9 3 3 -10 1 -19 -4 -23 -5 -3 -8 5 -7 17 2 23 34 32 48 12 4 -6 10 -1 13 13
4 12 11 22 16 22 5 0 7 -4 3 -9 -8 -14 30 -32 49 -25 12 5 15 2 10 -12 -3 -11
1 -8 10 6 18 30 20 40 5 40 -5 0 -7 -4 -4 -10 3 -5 0 -10 -9 -10 -8 0 -16 6
-19 13 -2 6 -8 8 -13 4 -5 -4 -2 -12 6 -17 17 -11 9 -13 -14 -4 -14 5 -14 9
-4 22 10 12 10 14 1 8 -8 -4 -13 -2 -13 4 0 6 -5 8 -12 4 -8 -5 -6 2 3 16 19
29 41 33 45 7 1 -10 -3 -16 -9 -14 -7 3 -11 10 -9 16 1 7 -2 10 -8 6 -25 -15
8 -39 55 -40 12 0 20 -7 20 -17 0 -9 4 -19 8 -22 4 -3 5 -3 2 0 -2 4 0 15 6
26 7 14 7 23 -1 34 -10 11 -9 15 4 20 9 3 16 13 16 21 0 8 5 11 11 8 7 -5 5
-13 -6 -25 -19 -21 -11 -44 11 -36 12 5 18 -4 16 -25 -1 -3 6 -6 14 -6 10 0
11 4 4 11 -15 15 -12 30 3 18 10 -8 16 -5 26 11 11 18 11 20 0 10 -17 -17 -34
-17 -21 0 7 8 7 18 2 27 -5 8 -6 18 -3 23 7 12 29 2 25 -13z m-1442 0 c0 -5
-2 -10 -4 -10 -3 0 -8 5 -11 10 -3 6 -1 10 4 10 6 0 11 -4 11 -10z m1410 -35
c-7 -9 -15 -13 -17 -11 -7 7 7 26 19 26 6 0 6 -6 -2 -15z m-30 -5 c0 -5 -4
-10 -10 -10 -5 0 -10 5 -10 10 0 6 5 10 10 10 6 0 10 -4 10 -10z m-280 -20 c3
-1 8 -2 11 -2 4 1 6 -6 5 -16 0 -9 5 -16 12 -14 13 2 14 0 16 -39 1 -19 -2
-26 -14 -24 -8 2 -19 4 -23 4 -5 1 -5 6 -2 11 4 6 11 7 17 4 7 -4 8 -2 4 4 -4
7 -1 12 6 12 10 0 9 3 -2 9 -8 6 -18 7 -24 4 -5 -3 -6 -2 -3 4 3 5 0 10 -7 10
-15 0 -15 -14 -2 -36 7 -11 5 -13 -6 -9 -22 9 -17 -41 6 -54 14 -8 17 -8 11 2
-6 9 -1 10 16 5 23 -7 23 -7 4 8 -22 17 -2 19 24 3 9 -6 12 -5 8 0 -10 16 10
38 38 41 25 4 25 3 8 -15 -10 -10 -22 -17 -27 -14 -5 3 -6 0 -2 -6 3 -6 -3
-13 -14 -17 -11 -3 -20 -10 -20 -14 0 -14 -64 -7 -78 9 -10 13 -12 13 -10 0 2
-8 -4 -14 -12 -15 -9 0 -15 -9 -15 -22 0 -11 -4 -25 -9 -30 -5 -5 -7 -1 -3 9
6 18 -19 46 -31 34 -4 -4 -7 -20 -7 -34 0 -34 -29 -37 -31 -4 -1 15 3 21 11
18 14 -5 14 19 0 31 -4 4 -5 2 -1 -4 10 -18 -9 -16 -23 1 -10 11 -5 13 26 11
22 -2 45 3 54 12 9 7 20 13 25 12 24 -4 30 4 29 34 0 17 3 38 8 45 6 7 5 17
-2 26 -10 12 -9 14 6 11 10 -2 20 -4 23 -5z m423 -33 c-3 -5 -10 -3 -15 7 -5
9 -13 14 -19 11 -5 -3 -6 1 -3 10 6 14 8 14 25 -1 10 -9 16 -21 12 -27z m-403
-23 c0 -8 -19 -13 -24 -6 -3 5 1 9 9 9 8 0 15 -2 15 -3z m-20 -49 c0 -8 -4
-15 -8 -15 -5 0 -9 7 -9 15 0 8 4 15 9 15 4 0 8 -7 8 -15z m137 7 c17 14 25 6
17 -16 -3 -9 -10 -13 -15 -10 -6 3 -16 1 -24 -6 -16 -13 -28 1 -19 25 5 11 10
13 17 6 7 -7 15 -7 24 1z m-417 -42 c0 -5 -4 -10 -10 -10 -5 0 -10 5 -10 10 0
6 5 10 10 10 6 0 10 -4 10 -10z m13 -15 c23 3 27 0 22 -13 -5 -13 -3 -14 6 -5
12 12 42 6 34 -7 -9 -14 16 -23 28 -11 9 9 8 11 -5 6 -12 -5 -16 -2 -14 12 5
31 31 21 31 -12 1 -43 -4 -49 -27 -28 -18 16 -21 16 -31 2 -19 -24 -55 -21
-73 6 -9 13 -13 29 -10 34 4 6 -2 8 -14 6 -11 -2 -20 0 -20 4 0 15 13 20 29
12 9 -5 29 -7 44 -6z m-53 -27 c0 -3 -9 -6 -20 -5 -11 1 -20 5 -20 9 0 3 9 6
20 5 11 -1 20 -5 20 -9z m285 -48 c3 -5 1 -10 -4 -10 -6 0 -11 5 -11 10 0 6 2
10 4 10 3 0 8 -4 11 -10z"/>
<path d="M3550 1779 c0 -5 5 -7 10 -4 6 3 10 8 10 11 0 2 -4 4 -10 4 -5 0 -10
-5 -10 -11z"/>
<path d="M3275 1771 c-3 -5 -2 -12 3 -15 5 -3 9 1 9 9 0 17 -3 19 -12 6z"/>
<path d="M3090 1719 c0 -5 5 -7 10 -4 6 3 10 8 10 11 0 2 -4 4 -10 4 -5 0 -10
-5 -10 -11z"/>
<path d="M3175 1720 c3 -5 8 -10 11 -10 2 0 4 5 4 10 0 6 -5 10 -11 10 -5 0
-7 -4 -4 -10z"/>
<path d="M3515 1721 c-3 -5 -2 -12 3 -15 5 -3 9 1 9 9 0 17 -3 19 -12 6z"/>
<path d="M3575 1720 c-3 -5 -1 -10 4 -10 6 0 11 5 11 10 0 6 -2 10 -4 10 -3 0
-8 -4 -11 -10z"/>
<path d="M3624 1722 c4 -3 14 -7 22 -8 9 -1 13 0 10 4 -4 3 -14 7 -22 8 -9 1
-13 0 -10 -4z"/>
<path d="M3670 1726 c0 -2 7 -7 16 -10 8 -3 12 -2 9 4 -6 10 -25 14 -25 6z"/>
<path d="M2970 1700 c0 -5 5 -10 11 -10 5 0 7 5 4 10 -3 6 -8 10 -11 10 -2 0
-4 -4 -4 -10z"/>
<path d="M3020 1700 c-9 -6 -10 -10 -3 -10 6 0 15 5 18 10 8 12 4 12 -15 0z"/>
<path d="M3050 1700 c0 -5 5 -10 11 -10 5 0 7 5 4 10 -3 6 -8 10 -11 10 -2 0
-4 -4 -4 -10z"/>
<path d="M3393 1695 c0 -8 4 -12 9 -9 5 3 6 10 3 15 -9 13 -12 11 -12 -6z"/>
<path d="M3230 1696 c0 -2 8 -10 18 -17 15 -13 16 -12 3 4 -13 16 -21 21 -21
13z"/>
<path d="M3206 1682 c-3 -5 1 -9 9 -9 8 0 12 4 9 9 -3 4 -7 8 -9 8 -2 0 -6 -4
-9 -8z"/>
<path d="M3293 1673 c0 -9 4 -10 14 -2 7 6 13 12 13 14 0 1 -6 2 -13 2 -8 0
-14 -6 -14 -14z"/>
<path d="M3335 1681 c-3 -5 -2 -12 3 -15 5 -3 9 1 9 9 0 17 -3 19 -12 6z"/>
<path d="M3590 1681 c0 -6 4 -12 8 -15 5 -3 9 1 9 9 0 8 -4 15 -9 15 -4 0 -8
-4 -8 -9z"/>
<path d="M3510 1656 c7 -7 13 -7 20 0 6 6 3 10 -10 10 -13 0 -16 -4 -10 -10z"/>
<path d="M3640 1655 c-7 -8 -16 -12 -21 -9 -5 3 -9 0 -9 -5 0 -17 15 -13 35 9
10 11 16 20 13 20 -3 0 -11 -7 -18 -15z"/>
<path d="M3745 1660 c-3 -6 1 -7 9 -4 18 7 21 14 7 14 -6 0 -13 -4 -16 -10z"/>
<path d="M3715 1650 c-4 -6 -11 -7 -17 -4 -7 4 -8 2 -4 -5 6 -9 11 -9 22 0 14
11 18 19 10 19 -3 0 -8 -5 -11 -10z"/>
<path d="M3114 1619 c-2 -33 4 -33 11 -1 2 12 1 24 -3 26 -4 2 -8 -9 -8 -25z"/>
<path d="M3397 1631 c-10 -14 -10 -14 4 -4 9 7 18 10 21 7 3 -3 8 -1 12 4 9
16 -24 9 -37 -7z"/>
<path d="M3525 1643 c-31 -8 -40 -21 -9 -15 21 4 25 2 19 -9 -5 -8 -4 -10 0
-6 7 6 18 40 12 36 -1 -1 -11 -3 -22 -6z"/>
<path d="M3670 1641 c0 -6 4 -13 10 -16 6 -3 7 1 4 9 -7 18 -14 21 -14 7z"/>
<path d="M3766 1638 c3 -5 10 -6 15 -3 13 9 11 12 -6 12 -8 0 -12 -4 -9 -9z"/>
<path d="M2993 1618 c1 -7 -3 -12 -9 -11 -6 1 -11 -5 -11 -13 0 -12 4 -11 18
2 10 9 16 21 13 25 -8 13 -14 11 -11 -3z"/>
<path d="M3020 1625 c0 -2 6 -8 13 -14 10 -8 14 -7 14 2 0 8 -6 14 -14 14 -7
0 -13 -1 -13 -2z"/>
<path d="M3145 1620 c-3 -6 1 -7 9 -4 18 7 21 14 7 14 -6 0 -13 -4 -16 -10z"/>
<path d="M3435 1599 c3 -12 7 -24 11 -28 4 -3 4 2 1 12 -6 15 -3 17 12 12 22
-7 37 10 20 21 -8 4 -9 3 -5 -4 9 -15 1 -15 -24 -2 -16 9 -18 7 -15 -11z"/>
<path d="M3652 1613 c-10 -4 -10 -8 0 -20 10 -12 9 -14 -8 -11 -10 1 -23 8
-27 13 -5 6 -7 4 -4 -5 2 -8 14 -15 27 -15 17 0 24 6 25 23 1 12 1 22 1 21 -1
0 -7 -3 -14 -6z"/>
<path d="M3173 1595 c0 -7 6 -11 14 -8 7 3 13 6 13 8 0 2 -6 5 -13 8 -8 3 -14
-1 -14 -8z"/>
<path d="M3220 1600 c-8 -5 -10 -10 -5 -10 6 0 17 5 25 10 8 5 11 10 5 10 -5
0 -17 -5 -25 -10z"/>
<path d="M3316 1597 c3 -10 9 -15 12 -12 3 3 0 11 -7 18 -10 9 -11 8 -5 -6z"/>
<path d="M3575 1600 c-3 -6 1 -7 9 -4 18 7 21 14 7 14 -6 0 -13 -4 -16 -10z"/>
<path d="M3681 1594 c0 -11 3 -14 6 -6 3 7 2 16 -1 19 -3 4 -6 -2 -5 -13z"/>
<path d="M3714 1598 c-4 -5 -3 -12 0 -15 3 -4 6 -1 6 6 0 7 4 10 9 6 5 -3 12
-2 15 3 3 5 -2 9 -10 9 -8 0 -17 -4 -20 -9z"/>
<path d="M3781 1596 c-9 -11 -9 -16 1 -22 7 -4 10 -4 6 1 -4 4 0 14 10 21 9 7
12 14 6 14 -6 0 -17 -6 -23 -14z"/>
<path d="M3276 1587 c3 -10 9 -15 12 -12 3 3 0 11 -7 18 -10 9 -11 8 -5 -6z"/>
<path d="M3350 1590 c0 -5 5 -10 11 -10 5 0 7 5 4 10 -3 6 -8 10 -11 10 -2 0
-4 -4 -4 -10z"/>
<path d="M3495 1590 c-3 -6 2 -13 12 -17 10 -4 23 -13 29 -21 6 -8 17 -12 25
-9 10 4 9 6 -4 6 -10 1 -15 5 -12 11 3 5 -6 12 -20 16 -13 3 -22 10 -19 15 3
5 3 9 0 9 -3 0 -8 -5 -11 -10z"/>
<path d="M3830 1589 c0 -5 -6 -7 -12 -3 -7 4 -9 3 -5 -1 13 -15 36 -14 30 1
-6 17 -13 18 -13 3z"/>
<path d="M3030 1583 c1 -13 30 -48 30 -36 0 7 -5 15 -10 18 -6 4 -8 11 -5 16
4 5 1 9 -4 9 -6 0 -11 -3 -11 -7z"/>
<path d="M3153 1564 c0 -17 2 -22 7 -13 5 6 6 18 3 26 -8 19 -10 16 -10 -13z"/>
<path d="M3235 1580 c-3 -5 -1 -10 4 -10 6 0 11 5 11 10 0 6 -2 10 -4 10 -3 0
-8 -4 -11 -10z"/>
<path d="M3590 1581 c0 -6 4 -13 10 -16 6 -3 7 1 4 9 -7 18 -14 21 -14 7z"/>
<path d="M3198 1573 c7 -3 16 -2 19 1 4 3 -2 6 -13 5 -11 0 -14 -3 -6 -6z"/>
<path d="M3261 1561 c-1 -21 -3 -22 -18 -10 -15 12 -16 12 -8 -1 14 -23 15
-42 2 -37 -7 2 -12 10 -12 18 0 9 -9 13 -23 12 -15 -2 -21 1 -16 9 4 7 3 8 -5
4 -18 -12 -2 -28 21 -20 11 3 18 2 15 -3 -6 -10 20 -49 29 -41 3 4 7 12 8 20
2 7 6 21 10 30 5 10 6 23 3 30 -3 7 -6 2 -6 -11z"/>
<path d="M2990 1565 c0 -5 5 -17 10 -25 5 -8 10 -10 10 -5 0 6 -5 17 -10 25
-5 8 -10 11 -10 5z"/>
<path d="M3120 1555 c-7 -9 -8 -15 -2 -15 5 0 12 7 16 15 3 8 4 15 2 15 -2 0
-9 -7 -16 -15z"/>
<path d="M3330 1565 c0 -3 9 -14 20 -25 22 -22 26 -14 6 13 -13 16 -26 23 -26
12z"/>
<path d="M3480 1550 c11 -11 22 -20 25 -20 3 0 0 9 -7 20 -7 11 -18 20 -25 20
-8 0 -5 -8 7 -20z"/>
<path d="M3690 1565 c0 -8 29 -12 39 -5 9 5 4 8 -13 8 -14 0 -26 -2 -26 -3z"/>
<path d="M3790 1560 c-11 -7 -11 -10 -2 -10 7 0 10 -4 7 -10 -4 -6 1 -7 12 -3
15 6 16 4 6 -9 -11 -12 -9 -18 7 -33 18 -17 20 -17 14 -2 -3 9 -11 17 -17 17
-17 0 2 14 25 17 18 3 19 1 8 -12 -11 -13 -10 -14 4 -9 19 7 16 29 -5 30 -25
2 -49 16 -43 25 7 11 3 11 -16 -1z"/>
<path d="M3854 1559 c-4 -7 -3 -9 4 -5 5 3 13 0 15 -6 4 -9 6 -10 6 -1 1 17
-16 25 -25 12z"/>
<path d="M3070 1540 c0 -5 7 -7 15 -4 8 4 15 8 15 10 0 2 -7 4 -15 4 -8 0 -15
-4 -15 -10z"/>
<path d="M3635 1530 c3 -5 8 -10 11 -10 2 0 4 5 4 10 0 6 -5 10 -11 10 -5 0
-7 -4 -4 -10z"/>
<path d="M2990 1512 c6 -12 15 -20 20 -17 5 3 10 -3 13 -12 3 -14 4 -14 3 2
-1 11 -4 18 -8 15 -4 -3 -14 4 -23 15 -16 19 -16 19 -5 -3z"/>
<path d="M3030 1516 c7 -7 13 -7 20 0 6 6 3 10 -10 10 -13 0 -16 -4 -10 -10z"/>
<path d="M3084 1515 c-4 -8 -10 -12 -15 -10 -15 10 -40 -64 -29 -86 6 -10 13
-19 16 -19 2 0 0 9 -6 19 -10 20 10 88 23 75 4 -4 9 1 13 10 3 9 10 13 15 10
5 -3 9 0 9 5 0 16 -20 13 -26 -4z"/>
<path d="M3130 1520 c0 -5 5 -10 10 -10 6 0 10 5 10 10 0 6 -4 10 -10 10 -5 0
-10 -4 -10 -10z"/>
<path d="M3340 1523 c0 -15 19 -37 26 -31 3 4 -1 14 -10 23 -9 9 -16 13 -16 8z"/>
<path d="M3306 1493 c-8 -21 10 -41 24 -27 11 11 3 44 -10 44 -4 0 -11 -8 -14
-17z m24 -13 c0 -5 -4 -10 -10 -10 -5 0 -10 5 -10 10 0 6 5 10 10 10 6 0 10
-4 10 -10z"/>
<path d="M3910 1492 c0 -4 10 -13 23 -21 22 -14 22 -14 3 8 -20 22 -26 25 -26
13z"/>
<path d="M2988 1463 c7 -3 16 -2 19 1 4 3 -2 6 -13 5 -11 0 -14 -3 -6 -6z"/>
<path d="M3000 1440 c0 -5 5 -10 10 -10 6 0 10 5 10 10 0 6 -4 10 -10 10 -5 0
-10 -4 -10 -10z"/>
<path d="M3230 1396 c0 -2 7 -7 16 -10 8 -3 12 -2 9 4 -6 10 -25 14 -25 6z"/>
<path d="M3305 1380 c10 -11 20 -20 23 -20 3 0 -3 9 -13 20 -10 11 -20 20 -23
20 -3 0 3 -9 13 -20z"/>
<path d="M3590 1395 c0 -2 6 -8 13 -14 10 -8 14 -7 14 2 0 8 -6 14 -14 14 -7
0 -13 -1 -13 -2z"/>
<path d="M3186 1432 c2 -7 -4 -12 -14 -10 -12 2 -16 -3 -14 -16 3 -18 2 -18
-14 -5 -11 8 -15 9 -10 2 4 -7 15 -17 26 -23 15 -8 17 -7 13 10 -3 12 0 20 6
20 7 0 9 -5 5 -12 -4 -7 2 -5 13 5 22 19 29 54 7 36 -6 -5 -14 -6 -16 -2 -3 4
-3 2 -2 -5z"/>
<path d="M3746 1432 c-3 -5 1 -9 9 -9 8 0 12 4 9 9 -3 4 -7 8 -9 8 -2 0 -6 -4
-9 -8z"/>
<path d="M3911 1407 c-1 -15 -2 -38 -2 -51 -2 -30 -16 -28 -70 7 -38 25 -43
26 -59 12 -9 -8 -20 -12 -23 -8 -4 3 -7 1 -7 -5 0 -12 13 -16 39 -13 7 2 11
-2 8 -6 -3 -5 5 -9 18 -9 13 0 21 4 19 8 -3 4 -1 8 4 8 6 0 12 -6 15 -14 3 -8
14 -13 24 -11 21 3 55 -23 47 -36 -3 -5 -2 -15 3 -21 4 -7 8 -16 9 -20 1 -5 2
-9 4 -10 1 -2 3 -11 5 -21 2 -10 11 -27 19 -36 14 -15 14 -20 3 -29 -8 -7 -18
-8 -22 -4 -5 4 -5 2 -2 -5 9 -14 30 -11 51 6 15 13 15 15 0 32 -10 11 -13 19
-8 19 5 1 -1 9 -13 19 -12 10 -19 21 -16 25 3 3 11 1 18 -4 8 -7 11 -1 10 23
-1 36 -12 60 -25 52 -4 -3 -10 1 -13 9 -3 8 1 13 11 12 10 0 16 5 14 14 -2 8
-4 25 -5 37 -1 12 -6 22 -12 22 -5 0 -9 -8 -8 -18 1 -10 -4 -18 -13 -18 -8 0
-12 7 -9 16 2 9 1 22 -4 30 -7 10 -9 7 -10 -12z m-91 -42 c12 -14 9 -18 -7
-12 -5 1 -7 5 -5 10 3 11 -13 8 -28 -5 -12 -11 -12 -10 -1 5 16 21 25 21 41 2z
m113 -4 c3 8 4 -1 2 -18 -2 -18 1 -34 6 -34 5 -1 14 -2 21 -3 7 0 13 -13 13
-29 1 -15 0 -25 -3 -22 -3 3 -12 -1 -21 -7 -9 -7 -13 -8 -9 -4 4 5 3 15 -4 23
-6 7 -8 16 -5 20 4 3 2 12 -5 20 -6 8 -13 26 -14 41 -2 18 0 22 5 13 7 -11 9
-11 14 0z m31 -6 c3 -8 1 -15 -4 -15 -6 0 -10 7 -10 15 0 8 2 15 4 15 2 0 6
-7 10 -15z m4 -147 c-2 -3 5 -15 15 -26 17 -18 17 -20 0 -33 -15 -11 -16 -11
-6 1 10 11 9 17 -4 32 -9 10 -12 18 -7 18 5 0 2 5 -6 11 -10 7 -11 9 -2 7 8
-2 12 -6 10 -10z"/>
<path d="M3941 1283 c-1 -17 16 -25 25 -12 4 7 3 9 -4 5 -5 -3 -13 0 -15 6 -4
9 -6 10 -6 1z"/>
<path d="M3673 1405 c0 -8 4 -12 9 -9 5 3 6 10 3 15 -9 13 -12 11 -12 -6z"/>
<path d="M3947 1083 c3 -8 8 -11 11 -9 3 3 10 2 16 -4 7 -5 18 -5 26 0 19 12
8 21 -28 24 -21 1 -28 -2 -25 -11z"/>
<path d="M3875 1052 c4 -8 0 -21 -10 -32 -10 -11 -12 -20 -6 -24 5 -4 12 -2
16 4 3 5 3 10 -1 10 -3 0 -1 7 6 15 11 13 11 18 0 28 -10 9 -11 9 -5 -1z"/>
<path d="M3800 1009 c-10 -5 -11 -9 -3 -9 7 0 2 -10 -10 -23 -12 -13 -25 -22
-28 -20 -4 1 -13 -5 -20 -15 -13 -16 -13 -16 5 -2 11 8 21 14 22 13 2 -1 17
10 35 26 30 27 29 50 -1 30z"/>
<path d="M3510 859 c0 -5 5 -7 10 -4 6 3 10 8 10 11 0 2 -4 4 -10 4 -5 0 -10
-5 -10 -11z"/>
<path d="M4070 1139 c0 -5 5 -7 10 -4 6 3 10 8 10 11 0 2 -4 4 -10 4 -5 0 -10
-5 -10 -11z"/>
<path d="M4006 1131 c-4 -5 -2 -12 3 -15 5 -4 12 -2 15 3 4 5 2 12 -3 15 -5 4
-12 2 -15 -3z"/>
<path d="M4140 1000 c0 -5 5 -10 11 -10 5 0 7 5 4 10 -3 6 -8 10 -11 10 -2 0
-4 -4 -4 -10z"/>
<path d="M3835 920 c-3 -5 -1 -10 4 -10 6 0 11 5 11 10 0 6 -2 10 -4 10 -3 0
-8 -4 -11 -10z"/>
<path d="M3641 891 c-12 -8 -12 -12 -2 -25 21 -26 71 -13 71 19 -1 6 -6 1 -12
-9 -10 -18 -11 -18 -27 2 -11 15 -20 19 -30 13z m14 -11 c-3 -5 -1 -10 6 -10
7 0 10 -3 6 -6 -9 -9 -28 6 -22 17 4 5 8 9 11 9 3 0 2 -4 -1 -10z"/>
<path d="M4890 6780 c0 -5 5 -10 11 -10 5 0 7 5 4 10 -3 6 -8 10 -11 10 -2 0
-4 -4 -4 -10z"/>
<path d="M5293 6775 c0 -8 4 -12 9 -9 5 3 6 10 3 15 -9 13 -12 11 -12 -6z"/>
<path d="M5360 6780 c-9 -6 -10 -10 -3 -10 6 0 15 5 18 10 8 12 4 12 -15 0z"/>
<path d="M4947 6757 c3 -4 8 -6 11 -3 3 3 10 1 17 -4 8 -7 12 -6 12 3 0 7 -11
13 -23 13 -12 0 -20 -4 -17 -9z"/>
<path d="M4910 6756 c0 -2 8 -10 18 -17 15 -13 16 -12 3 4 -13 16 -21 21 -21
13z"/>
<path d="M4885 6719 c-3 -4 2 -6 10 -5 21 3 28 13 10 13 -9 0 -18 -4 -20 -8z"/>
<path d="M5496 6713 c-6 -14 -5 -15 5 -6 7 7 10 15 7 18 -3 3 -9 -2 -12 -12z"/>
<path d="M5546 6702 c-3 -5 1 -9 9 -9 8 0 15 4 15 9 0 4 -4 8 -9 8 -6 0 -12
-4 -15 -8z"/>
<path d="M5647 6639 c7 -7 15 -10 18 -7 3 3 -2 9 -12 12 -14 6 -15 5 -6 -5z"/>
<path d="M5846 6622 c-3 -5 1 -9 9 -9 8 0 12 4 9 9 -3 4 -7 8 -9 8 -2 0 -6 -4
-9 -8z"/>
<path d="M5760 6604 l-25 -14 26 2 c14 1 26 8 26 15 0 7 -1 13 -1 12 -1 -1
-12 -7 -26 -15z"/>
<path d="M5814 6600 c0 -13 4 -16 10 -10 7 7 7 13 0 20 -6 6 -10 3 -10 -10z"/>
<path d="M5758 6573 c7 -3 16 -2 19 1 4 3 -2 6 -13 5 -11 0 -14 -3 -6 -6z"/>
<path d="M5836 6538 c3 -5 10 -6 15 -3 13 9 11 12 -6 12 -8 0 -12 -4 -9 -9z"/>
<path d="M5873 6528 c-1 -10 3 -18 9 -18 6 0 8 3 5 7 -4 3 -2 11 3 18 7 8 6
12 -3 12 -7 0 -14 -9 -14 -19z"/>
<path d="M5911 6507 c-8 -10 -7 -14 2 -14 8 0 14 6 14 14 0 7 -1 13 -2 13 -2
0 -8 -6 -14 -13z"/>
<path d="M5966 6462 c-3 -5 1 -9 9 -9 8 0 12 4 9 9 -3 4 -7 8 -9 8 -2 0 -6 -4
-9 -8z"/>
<path d="M1841 5776 c-8 -10 -9 -16 -1 -21 6 -4 9 -1 8 7 -2 7 3 12 10 10 8
-1 11 2 7 8 -8 13 -10 13 -24 -4z"/>
<path d="M1886 5782 c-3 -5 1 -9 9 -9 8 0 12 4 9 9 -3 4 -7 8 -9 8 -2 0 -6 -4
-9 -8z"/>
<path d="M1869 5743 c-13 -16 -12 -17 4 -4 9 7 17 15 17 17 0 8 -8 3 -21 -13z"/>
<path d="M1936 5742 c-3 -4 4 -9 15 -9 23 -2 25 3 4 10 -8 4 -16 3 -19 -1z"/>
<path d="M1886 5718 c3 -5 10 -6 15 -3 13 9 11 12 -6 12 -8 0 -12 -4 -9 -9z"/>
<path d="M1894 5689 c-3 -6 -2 -15 3 -20 5 -5 9 -1 9 11 0 23 -2 24 -12 9z"/>
<path d="M1810 5678 c0 -11 12 -10 30 2 12 7 10 9 -8 7 -12 0 -22 -5 -22 -9z"/>
<path d="M1995 5681 c-3 -5 -2 -12 3 -15 5 -3 9 1 9 9 0 17 -3 19 -12 6z"/>
<path d="M1858 5658 c5 -5 16 -8 23 -6 8 3 3 7 -10 11 -17 4 -21 3 -13 -5z"/>
<path d="M1830 5651 c0 -9 30 -24 36 -18 2 1 -6 8 -16 15 -11 7 -20 8 -20 3z"/>
<path d="M1906 5638 c3 -5 10 -6 15 -3 13 9 11 12 -6 12 -8 0 -12 -4 -9 -9z"/>
<path d="M1934 5623 c3 -3 17 -7 32 -9 14 -1 23 0 20 3 -3 4 -18 8 -32 9 -14
2 -24 0 -20 -3z"/>
<path d="M2007 5619 c7 -7 15 -10 18 -7 3 3 -2 9 -12 12 -14 6 -15 5 -6 -5z"/>
<path d="M1950 5586 c0 -2 7 -7 16 -10 8 -3 12 -2 9 4 -6 10 -25 14 -25 6z"/>
<path d="M1937 5565 c3 -8 9 -12 14 -9 12 7 11 11 -5 17 -10 4 -13 1 -9 -8z"/>
<path d="M2190 5446 c0 -2 7 -7 16 -10 8 -3 12 -2 9 4 -6 10 -25 14 -25 6z"/>
<path d="M4055 1700 c-3 -5 -1 -10 4 -10 6 0 11 5 11 10 0 6 -2 10 -4 10 -3 0
-8 -4 -11 -10z"/>
<path d="M4079 1673 c-13 -16 -12 -17 4 -4 9 7 17 15 17 17 0 8 -8 3 -21 -13z"/>
<path d="M4273 1675 c0 -8 4 -12 9 -9 5 3 6 10 3 15 -9 13 -12 11 -12 -6z"/>
<path d="M4170 1660 c0 -5 5 -10 11 -10 5 0 7 5 4 10 -3 6 -8 10 -11 10 -2 0
-4 -4 -4 -10z"/>
<path d="M4413 1615 c0 -8 4 -12 9 -9 5 3 6 10 3 15 -9 13 -12 11 -12 -6z"/>
<path d="M2454 1556 c1 -8 5 -18 8 -22 4 -3 5 1 4 10 -1 8 -5 18 -8 22 -4 3
-5 -1 -4 -10z"/>
<path d="M2494 1536 c1 -8 5 -18 8 -22 4 -3 5 1 4 10 -1 8 -5 18 -8 22 -4 3
-5 -1 -4 -10z"/>
<path d="M2530 1540 c0 -5 5 -10 11 -10 5 0 7 5 4 10 -3 6 -8 10 -11 10 -2 0
-4 -4 -4 -10z"/>
<path d="M2379 1528 c-5 -18 -6 -38 -1 -34 7 8 12 36 6 36 -2 0 -4 -1 -5 -2z"/>
<path d="M4650 1499 c0 -5 5 -7 10 -4 6 3 10 8 10 11 0 2 -4 4 -10 4 -5 0 -10
-5 -10 -11z"/>
<path d="M2433 1475 c0 -8 4 -12 9 -9 5 3 6 10 3 15 -9 13 -12 11 -12 -6z"/>
<path d="M2597 1478 c-7 -5 1 -6 17 -4 17 3 37 0 45 -7 14 -10 14 -10 3 5 -14
17 -44 20 -65 6z"/>
<path d="M2336 1462 c-3 -4 4 -9 15 -9 23 -2 25 3 4 10 -8 4 -16 3 -19 -1z"/>
<path d="M2506 1458 c3 -4 9 -8 15 -8 5 0 9 4 9 8 0 5 -7 9 -15 9 -8 0 -12 -4
-9 -9z"/>
<path d="M2574 1440 c0 -13 4 -16 10 -10 7 7 7 13 0 20 -6 6 -10 3 -10 -10z"/>
<path d="M2611 1447 c-8 -10 -7 -14 2 -14 8 0 14 6 14 14 0 7 -1 13 -2 13 -2
0 -8 -6 -14 -13z"/>
<path d="M4860 1440 c-9 -6 -10 -10 -3 -10 6 0 15 5 18 10 8 12 4 12 -15 0z"/>
<path d="M2520 1415 c-7 -9 -11 -17 -9 -20 3 -2 10 5 17 15 14 24 10 26 -8 5z"/>
<path d="M2595 1410 c-3 -6 1 -7 9 -4 18 7 21 14 7 14 -6 0 -13 -4 -16 -10z"/>
<path d="M2267 1399 c7 -7 15 -10 18 -7 3 3 -2 9 -12 12 -14 6 -15 5 -6 -5z"/>
<path d="M2310 1406 c0 -2 7 -7 16 -10 8 -3 12 -2 9 4 -6 10 -25 14 -25 6z"/>
<path d="M2430 1396 c0 -2 8 -10 18 -17 15 -13 16 -12 3 4 -13 16 -21 21 -21
13z"/>
<path d="M2630 1390 c-11 -7 -11 -10 -2 -10 7 0 11 -4 7 -9 -3 -5 0 -13 7 -17
7 -4 10 -4 6 1 -4 4 0 14 10 22 16 12 16 13 -2 6 -13 -4 -17 -3 -12 5 9 14 6
15 -14 2z"/>
<path d="M4247 1376 c-10 -8 -14 -16 -10 -19 5 -3 14 3 21 14 14 22 13 23 -11
5z"/>
<path d="M4853 1369 c-2 -23 3 -25 10 -4 4 8 3 16 -1 19 -4 3 -9 -4 -9 -15z"/>
<path d="M2493 1365 c0 -8 4 -12 9 -9 5 3 6 10 3 15 -9 13 -12 11 -12 -6z"/>
<path d="M2675 1370 c-3 -5 -3 -10 1 -10 4 0 -1 -7 -12 -16 -18 -15 -18 -15 0
-6 11 5 21 17 22 26 3 18 -2 21 -11 6z"/>
<path d="M3377 1372 c-3 -6 -2 -17 2 -38 1 -9 31 16 31 26 0 11 -28 21 -33 12z
m18 -11 c3 -5 2 -12 -3 -15 -5 -3 -9 1 -9 9 0 17 3 19 12 6z"/>
<path d="M4395 1371 c-8 -13 10 -22 29 -15 12 5 15 2 10 -12 -5 -15 -4 -16 4
-4 15 20 4 32 -20 24 -14 -4 -18 -2 -14 5 4 6 5 11 2 11 -3 0 -7 -4 -11 -9z"/>
<path d="M2220 1366 c0 -2 8 -10 18 -17 15 -13 16 -12 3 4 -13 16 -21 21 -21
13z"/>
<path d="M2545 1359 c-11 -16 -1 -19 13 -3 7 8 8 14 3 14 -5 0 -13 -5 -16 -11z"/>
<path d="M2604 1359 c-3 -6 -2 -15 4 -21 6 -6 12 -6 17 3 6 8 4 10 -5 4 -10
-6 -12 -4 -7 8 7 19 2 23 -9 6z"/>
<path d="M3415 1352 c-7 -19 11 -41 32 -38 9 2 32 -8 51 -20 19 -13 38 -21 43
-19 4 3 13 -4 19 -15 6 -11 15 -18 21 -15 9 6 12 -3 12 -37 0 -10 4 -15 8 -12
10 6 10 6 14 -51 5 -60 9 -74 30 -89 18 -13 18 -13 -1 -24 -12 -7 -14 -12 -5
-12 10 0 11 -3 2 -14 -9 -10 -8 -15 3 -19 10 -4 13 -1 9 9 -3 7 -1 14 4 14 13
0 44 -35 38 -42 -3 -3 5 -5 17 -4 13 0 24 7 24 14 1 6 3 14 4 17 1 3 3 8 4 13
1 4 7 17 15 30 10 19 15 21 27 11 12 -10 13 -9 7 6 -5 14 -3 17 10 12 17 -6
91 46 80 57 -3 3 0 6 7 6 7 0 10 3 7 7 -4 3 -1 13 5 21 17 20 19 44 4 62 -7 8
-12 29 -12 46 2 28 -1 31 -26 29 -16 -2 -31 2 -34 7 -3 5 -11 4 -19 -2 -10 -8
-15 -8 -20 0 -5 8 -11 8 -21 -1 -11 -9 -18 -9 -26 -1 -6 6 -16 8 -23 6 -7 -3
-16 -1 -19 5 -4 6 -14 7 -23 4 -13 -5 -15 -2 -10 11 4 11 3 15 -4 11 -6 -4 -8
-14 -4 -24 4 -10 -1 -8 -15 7 -12 12 -18 28 -14 35 5 9 4 9 -6 0 -11 -10 -18
-9 -33 4 -18 17 -19 17 -28 0 -8 -13 -14 -15 -30 -7 -20 11 -52 1 -50 -16 1
-5 -8 -10 -19 -10 -11 -1 -20 4 -19 10 4 34 -24 48 -36 18z m189 -27 c-3 -7 0
-16 6 -20 6 -3 10 -3 9 2 -3 17 1 24 11 18 7 -4 7 -12 0 -25 -7 -13 -7 -21 0
-25 6 -4 9 -1 8 7 -2 7 3 12 10 10 7 -1 21 2 31 8 14 7 23 5 35 -9 9 -10 13
-21 9 -25 -4 -4 0 -4 10 0 14 5 15 9 5 23 -10 13 -9 13 7 -1 17 -16 19 -16 30
-1 10 13 14 13 20 3 5 -8 4 -11 -2 -7 -6 4 -14 0 -17 -9 -10 -27 -1 -26 27 1
15 16 28 22 32 15 3 -6 10 -8 15 -5 5 3 7 -4 5 -15 -3 -14 0 -20 8 -17 7 2 10
13 9 23 -2 10 -1 16 2 13 11 -11 16 -50 5 -44 -5 4 -9 2 -9 -2 0 -5 9 -14 20
-21 22 -14 22 -48 -1 -66 -8 -6 -15 -18 -17 -26 -5 -22 -33 -50 -43 -44 -5 3
-9 -1 -9 -8 0 -10 -2 -10 -9 1 -6 9 -11 10 -15 2 -4 -6 -11 -9 -16 -6 -8 5
-43 -48 -45 -67 0 -3 -4 -10 -9 -15 -5 -5 -6 -3 -2 5 4 6 2 12 -3 12 -6 0 -11
-5 -11 -11 0 -6 -6 -9 -12 -6 -7 2 -12 10 -10 16 2 10 -11 15 -31 12 -5 -1 -5
4 -1 11 18 28 14 47 -8 43 -11 -3 -18 -2 -15 2 4 3 2 14 -4 25 -8 15 -7 24 5
37 21 24 20 37 -1 20 -15 -11 -16 -11 -6 1 10 11 9 19 -10 39 -12 13 -16 21
-9 17 18 -11 15 2 -8 31 -11 14 -20 22 -20 18 0 -5 -9 0 -19 9 -11 10 -25 18
-33 20 -32 4 -40 17 -22 37 13 14 20 16 30 8 8 -6 11 -15 8 -20 -3 -5 2 -9 11
-9 11 0 15 5 12 14 -3 7 0 19 6 25 14 14 38 -5 31 -24z m-162 18 c-6 -2 -9
-10 -6 -15 4 -7 2 -8 -5 -4 -13 9 -5 26 12 25 9 0 8 -2 -1 -6z"/>
<path d="M3579 1343 c-1 -4 -2 -12 -4 -18 -1 -5 -3 -16 -3 -23 -1 -8 -7 -10
-14 -6 -9 6 -9 3 0 -9 8 -9 17 -16 20 -15 19 2 33 -3 28 -11 -3 -5 1 -14 10
-21 8 -7 13 -19 10 -27 -3 -8 1 -16 8 -19 23 -9 28 -35 10 -55 -27 -30 13 -75
42 -47 3 4 -4 12 -16 18 -18 10 -21 9 -15 -1 5 -8 4 -10 -3 -5 -18 11 -14 29
4 22 9 -3 12 -2 9 4 -4 6 -1 9 6 8 7 -2 14 6 16 17 3 15 2 16 -5 7 -7 -11 -10
-11 -15 2 -4 9 -1 15 5 13 6 -1 12 3 15 10 3 8 -3 11 -17 8 -18 -3 -20 -2 -10
10 15 18 -1 20 -20 3 -12 -11 -12 -10 -1 5 10 13 10 17 1 17 -6 0 -10 5 -8 11
2 6 8 9 13 7 6 -2 9 -6 8 -10 -4 -10 11 -10 20 -1 4 3 1 13 -6 21 -10 13 -9
14 2 7 10 -6 12 -4 6 6 -7 12 -6 12 7 1 9 -8 14 -21 11 -30 -4 -15 -3 -15 6
-2 6 8 11 10 11 4 0 -6 7 -11 15 -11 8 0 15 5 15 10 0 6 3 8 6 4 3 -3 -6 -23
-20 -44 -30 -44 -31 -50 -11 -50 9 0 14 6 11 14 -3 8 1 16 9 19 8 4 13 9 11
13 -2 3 2 14 9 24 11 15 13 16 19 2 5 -14 9 -14 37 1 23 12 34 13 43 4 8 -8 7
-10 -6 -5 -11 4 -18 2 -18 -4 0 -6 6 -11 14 -11 8 0 14 -8 13 -18 -1 -13 -8
-18 -24 -16 -13 1 -23 -2 -23 -6 0 -14 18 -21 25 -10 4 6 11 8 16 4 5 -3 7
-10 3 -15 -3 -5 -10 -7 -15 -4 -5 4 -9 1 -9 -5 0 -7 7 -10 18 -6 16 6 16 5 0
-7 -10 -8 -14 -18 -10 -22 4 -4 -3 -3 -15 4 -18 9 -24 8 -32 -6 -6 -11 -11
-13 -12 -5 -1 6 -3 17 -4 22 -1 6 -3 15 -4 21 0 5 -6 7 -11 4 -7 -4 -7 -13 0
-26 8 -15 7 -23 -5 -35 -8 -8 -15 -21 -15 -27 0 -7 -5 -4 -11 6 -9 15 -13 16
-26 5 -9 -7 -18 -12 -21 -10 -3 1 -7 -4 -8 -12 -1 -8 5 -17 13 -20 8 -3 11
-11 7 -18 -4 -6 3 -4 15 5 13 8 32 30 42 47 11 17 23 28 28 25 5 -3 12 -1 16
4 3 5 14 8 25 6 20 -4 54 31 44 46 -2 4 4 13 14 18 11 6 19 19 18 30 -1 21
-51 65 -64 57 -5 -3 -9 1 -9 8 0 9 7 12 16 8 14 -5 14 -3 3 10 -12 15 -15 14
-38 -7 -25 -23 -60 -24 -47 -1 3 6 1 6 -8 -1 -18 -18 -42 -16 -36 1 3 8 -1 20
-9 26 -10 9 -14 9 -14 1 0 -6 -3 -10 -7 -9 -5 1 -17 -3 -29 -9 -11 -6 -24 -9
-30 -5 -15 12 -35 52 -29 62 3 5 1 11 -5 15 -5 3 -11 3 -11 -2z m235 -96 c-3
-8 -12 -14 -21 -14 -13 0 -13 2 3 14 10 7 19 13 21 13 1 0 0 -6 -3 -13z m66
-52 c-8 -9 -7 -14 2 -17 8 -3 8 -6 -3 -10 -11 -4 -15 1 -14 22 0 18 4 26 13
23 9 -4 10 -9 2 -18z m-153 -152 c7 -19 -26 -23 -36 -4 -8 14 -6 17 11 16 12
-1 23 -6 25 -12z"/>
<path d="M3510 1325 c-7 -8 -11 -15 -9 -16 31 -6 37 -5 35 7 -3 22 -12 25 -26
9z"/>
<path d="M3673 1215 c0 -8 4 -12 8 -9 4 2 10 0 14 -6 9 -14 25 -3 19 13 -6 18
-41 19 -41 2z"/>
<path d="M3755 1209 c-5 -8 -4 -10 3 -5 16 10 15 -2 -2 -19 -7 -8 -17 -11 -22
-7 -5 4 -2 -1 5 -10 13 -18 6 -24 -21 -19 -5 0 -8 -4 -8 -10 0 -5 -4 -8 -9 -4
-14 8 -25 -15 -13 -27 6 -6 8 -18 4 -27 -5 -14 -4 -14 12 -2 16 14 16 16 2 27
-9 6 -16 15 -16 20 0 4 5 3 11 -3 8 -8 18 -4 36 13 28 26 53 22 48 -9 -3 -15
-2 -18 6 -10 6 6 19 9 28 6 14 -4 14 -3 1 6 -8 6 -11 11 -6 11 5 0 3 6 -3 14
-6 7 -23 12 -37 10 -28 -3 -25 8 4 12 9 2 26 5 37 8 11 2 24 5 29 5 6 1 1 7
-9 15 -13 9 -26 11 -36 6 -9 -6 -20 -5 -26 1 -8 8 -13 7 -18 -2z m71 -11 c4
-7 4 -10 -1 -6 -4 4 -17 3 -29 -3 -20 -10 -20 -10 -2 5 24 19 23 19 32 4z
m-21 -47 c3 -5 2 -12 -3 -15 -5 -3 -9 1 -9 9 0 17 3 19 12 6z"/>
<path d="M3735 1120 c3 -5 2 -10 -4 -10 -5 0 -8 -8 -6 -17 2 -10 4 -20 4 -22
1 -3 7 4 15 14 14 20 11 45 -6 45 -5 0 -6 -4 -3 -10z"/>
<path d="M2511 1347 c-8 -10 -7 -14 2 -14 8 0 14 6 14 14 0 7 -1 13 -2 13 -2
0 -8 -6 -14 -13z"/>
<path d="M4477 1353 c-10 -9 -9 -23 1 -23 5 0 9 7 9 15 0 17 -1 18 -10 8z"/>
<path d="M2179 1348 c-5 -18 -6 -38 -1 -34 7 8 12 36 6 36 -2 0 -4 -1 -5 -2z"/>
<path d="M2390 1338 c0 -4 4 -8 9 -8 6 0 12 4 15 8 3 5 -1 9 -9 9 -8 0 -15 -4
-15 -9z"/>
<path d="M2435 1342 c3 -3 -1 -12 -7 -21 -8 -10 -4 -9 10 3 26 23 26 23 7 23
-8 0 -13 -3 -10 -5z"/>
<path d="M2556 1335 c-9 -26 -7 -32 5 -12 6 10 9 21 6 23 -2 3 -7 -2 -11 -11z"/>
<path d="M2699 1345 c-1 -3 -2 -10 -3 -15 0 -6 -8 -15 -16 -20 -8 -5 -11 -12
-6 -17 7 -7 28 19 26 33 -1 4 4 11 12 15 10 7 10 9 1 9 -7 0 -14 -2 -14 -5z"/>
<path d="M4190 1339 c0 -5 5 -7 10 -4 6 3 10 8 10 11 0 2 -4 4 -10 4 -5 0 -10
-5 -10 -11z"/>
<path d="M4275 1323 c-17 -15 -22 -24 -12 -20 11 4 20 1 24 -8 10 -28 41 -37
65 -20 13 8 17 15 11 15 -7 0 -15 -4 -18 -10 -3 -5 -11 -10 -17 -10 -6 0 -3 9
7 20 10 11 13 20 7 20 -7 0 -12 -5 -12 -11 0 -5 -5 -7 -12 -3 -7 4 -8 3 -4 -4
4 -7 3 -12 -1 -12 -13 0 -34 39 -24 45 5 3 11 0 13 -7 3 -8 9 -8 24 1 14 10
15 11 2 7 -10 -3 -20 -1 -23 4 -3 5 3 11 12 13 13 3 13 5 3 6 -8 0 -28 -12
-45 -26z"/>
<path d="M4374 1335 c-3 -8 -10 -12 -15 -9 -5 3 -6 -3 -2 -12 4 -11 8 -13 11
-6 2 7 8 10 13 7 5 -4 6 1 2 10 -5 15 -3 15 15 4 11 -7 20 -18 19 -23 -1 -6 7
-11 18 -12 15 -1 16 0 2 3 -9 3 -15 8 -12 13 3 4 -6 15 -20 24 -23 15 -26 15
-31 1z"/>
<path d="M4899 1348 c-5 -18 -6 -38 -1 -34 7 8 12 36 6 36 -2 0 -4 -1 -5 -2z"/>
<path d="M4450 1325 c0 -8 4 -15 10 -15 5 0 7 7 4 15 -4 8 -8 15 -10 15 -2 0
-4 -7 -4 -15z"/>
<path d="M2119 1328 c-5 -18 -6 -38 -1 -34 7 8 12 36 6 36 -2 0 -4 -1 -5 -2z"/>
<path d="M2256 1322 c-3 -5 1 -9 9 -9 8 0 12 4 9 9 -3 4 -7 8 -9 8 -2 0 -6 -4
-9 -8z"/>
<path d="M2353 1323 c4 -3 1 -13 -6 -22 -11 -14 -10 -14 6 -2 20 15 22 31 5
31 -6 0 -8 -3 -5 -7z"/>
<path d="M2466 1322 c-3 -5 1 -9 9 -9 8 0 15 4 15 9 0 4 -4 8 -9 8 -6 0 -12
-4 -15 -8z"/>
<path d="M2630 1320 c0 -6 7 -10 15 -10 8 0 15 2 15 4 0 2 -7 6 -15 10 -8 3
-15 1 -15 -4z"/>
<path d="M4501 1321 c-10 -7 -7 -9 12 -8 14 1 23 5 20 10 -6 9 -15 9 -32 -2z"/>
<path d="M2575 1311 c-3 -5 0 -13 6 -17 7 -4 9 -3 5 4 -3 5 0 13 6 15 9 4 10
6 1 6 -6 1 -14 -3 -18 -8z"/>
<path d="M2535 1300 c6 -9 4 -12 -6 -8 -10 4 -15 -1 -15 -12 0 -10 6 -16 12
-13 18 7 25 31 12 39 -7 5 -8 2 -3 -6z"/>
<path d="M2604 1295 c-3 -8 -4 -20 -1 -27 3 -7 6 -3 6 10 1 15 5 21 13 16 7
-4 8 -3 4 4 -10 16 -15 15 -22 -3z"/>
<path d="M2716 1299 c2 -4 -2 -10 -8 -12 -7 -3 -8 -6 -2 -6 5 -1 19 5 30 13
19 14 18 15 -3 13 -12 0 -20 -4 -17 -8z"/>
<path d="M4950 1301 c0 -6 4 -13 10 -16 6 -3 7 1 4 9 -7 18 -14 21 -14 7z"/>
<path d="M2196 1287 c3 -10 9 -15 12 -12 3 3 0 11 -7 18 -10 9 -11 8 -5 -6z"/>
<path d="M2404 1278 c-12 -14 -13 -18 -3 -10 9 6 18 10 21 7 2 -3 5 2 5 10 0
19 0 19 -23 -7z"/>
<path d="M4388 1293 c6 -2 10 -8 8 -12 -3 -4 5 -8 16 -8 20 -2 20 -1 2 12 -11
8 -23 14 -29 14 -5 0 -4 -3 3 -6z"/>
<path d="M4475 1290 c-3 -6 1 -7 9 -4 18 7 21 14 7 14 -6 0 -13 -4 -16 -10z"/>
<path d="M4548 1293 c7 -3 16 -2 19 1 4 3 -2 6 -13 5 -11 0 -14 -3 -6 -6z"/>
<path d="M2635 1279 c-11 -16 -1 -19 13 -3 7 8 8 14 3 14 -5 0 -13 -5 -16 -11z"/>
<path d="M4630 1278 c0 -6 3 -8 7 -5 3 4 12 2 20 -5 11 -8 12 -7 7 6 -7 18
-34 22 -34 4z"/>
<path d="M4517 1269 c7 -7 15 -10 18 -7 3 3 -2 9 -12 12 -14 6 -15 5 -6 -5z"/>
<path d="M4795 1271 c-3 -5 -2 -12 3 -15 5 -3 9 1 9 9 0 17 -3 19 -12 6z"/>
<path d="M2359 1253 c-13 -16 -12 -17 4 -4 16 13 21 21 13 21 -2 0 -10 -8 -17
-17z"/>
<path d="M2554 1255 c3 -23 12 -26 13 -5 1 11 -2 20 -7 20 -4 0 -7 -7 -6 -15z"/>
<path d="M2650 1261 c0 -6 4 -11 9 -11 5 0 11 -9 14 -20 3 -11 11 -20 19 -19
10 0 10 2 1 6 -7 2 -13 9 -13 14 0 6 5 7 12 3 7 -4 8 -3 4 4 -4 7 -2 12 3 12
6 0 11 5 11 11 0 8 -5 8 -15 -1 -12 -10 -18 -10 -30 0 -10 9 -15 9 -15 1z"/>
<path d="M4355 1260 c-3 -5 -4 -14 0 -19 3 -5 1 -12 -5 -16 -5 -3 -10 -11 -10
-17 0 -6 9 1 20 15 21 26 46 30 59 8 6 -10 10 -8 15 5 3 9 4 19 1 22 -3 3 -5
0 -5 -8 0 -10 -3 -10 -15 0 -8 7 -15 9 -15 4 0 -4 -5 -3 -12 4 -15 15 -25 15
-33 2z m25 -4 c0 -3 -4 -8 -10 -11 -5 -3 -10 -1 -10 4 0 6 5 11 10 11 6 0 10
-2 10 -4z"/>
<path d="M4458 1263 c-13 -24 -2 -47 22 -47 20 0 25 5 25 24 0 18 -6 26 -22
28 -11 2 -23 0 -25 -5z m39 -21 c1 -11 -5 -18 -17 -18 -12 0 -18 7 -17 18 2
23 32 23 34 0z"/>
<path d="M4574 1258 c-5 -7 -2 -8 6 -3 10 6 12 4 6 -10 -5 -15 -4 -16 9 -5 19
15 19 16 0 23 -8 4 -17 1 -21 -5z"/>
<path d="M2404 1250 c-12 -5 -26 -15 -30 -22 -6 -10 -4 -10 9 1 9 7 23 11 30
8 8 -3 14 1 14 9 0 8 -1 14 -1 13 -1 0 -11 -4 -22 -9z"/>
<path d="M2716 1244 c-8 -20 -8 -24 2 -24 4 0 8 9 9 20 2 24 -3 26 -11 4z"/>
<path d="M2195 1240 c-3 -5 -1 -10 4 -10 6 0 11 5 11 10 0 6 -2 10 -4 10 -3 0
-8 -4 -11 -10z"/>
<path d="M2230 1240 c0 -5 5 -10 11 -10 5 0 7 5 4 10 -3 6 -8 10 -11 10 -2 0
-4 -4 -4 -10z"/>
<path d="M2580 1245 c0 -8 29 -12 39 -5 9 5 4 8 -13 8 -14 0 -26 -2 -26 -3z"/>
<path d="M4530 1235 c0 -8 2 -15 4 -15 2 0 6 7 10 15 3 8 1 15 -4 15 -6 0 -10
-7 -10 -15z"/>
<path d="M4866 1238 c3 -5 10 -6 15 -3 13 9 11 12 -6 12 -8 0 -12 -4 -9 -9z"/>
<path d="M2316 1227 c3 -10 9 -15 12 -12 3 3 0 11 -7 18 -10 9 -11 8 -5 -6z"/>
<path d="M2510 1229 c-12 -8 -10 -9 9 -4 17 5 22 4 16 -5 -5 -9 -4 -11 4 -6 6
4 9 12 6 17 -8 12 -16 11 -35 -2z"/>
<path d="M2624 1225 c-10 -8 -14 -14 -9 -15 15 0 40 18 34 24 -3 3 -14 -1 -25
-9z"/>
<path d="M2130 1219 c0 -5 5 -7 10 -4 6 3 10 8 10 11 0 2 -4 4 -10 4 -5 0 -10
-5 -10 -11z"/>
<path d="M2574 1215 c-4 -8 -10 -12 -15 -9 -5 3 -9 0 -9 -5 0 -18 19 -12 30 9
6 11 8 20 5 20 -3 0 -8 -7 -11 -15z"/>
<path d="M4371 1216 c-9 -11 -10 -20 -2 -35 8 -14 8 -21 -2 -24 -6 -2 -4 -3 5
-2 9 2 26 -4 37 -12 12 -8 21 -10 21 -4 0 5 -8 12 -18 15 -9 3 -23 15 -30 27
-11 18 -12 23 -1 30 8 4 11 11 8 14 -4 3 -12 -1 -18 -9z"/>
<path d="M4550 1220 c0 -5 5 -10 10 -10 6 0 10 5 10 10 0 6 -4 10 -10 10 -5 0
-10 -4 -10 -10z"/>
<path d="M4705 1220 c-3 -6 1 -7 9 -4 18 7 21 14 7 14 -6 0 -13 -4 -16 -10z"/>
<path d="M4576 1203 c-4 -9 -2 -21 4 -27 8 -8 9 -6 4 8 -5 13 -4 17 4 12 8 -5
10 -2 6 8 -8 20 -10 20 -18 -1z"/>
<path d="M2370 1201 c0 -6 4 -13 10 -16 6 -3 7 1 4 9 -7 18 -14 21 -14 7z"/>
<path d="M2596 1196 c5 -13 4 -17 -4 -12 -6 3 -15 -2 -21 -11 -9 -17 -11 -17
-26 2 -16 20 -16 19 -5 -2 12 -26 28 -30 36 -8 4 8 10 13 14 10 14 -9 23 16
11 28 -9 9 -10 7 -5 -7z"/>
<path d="M2650 1200 c0 -5 5 -10 10 -10 6 0 10 5 10 10 0 6 -4 10 -10 10 -5 0
-10 -4 -10 -10z"/>
<path d="M2710 1198 c0 -6 3 -8 7 -5 3 4 17 0 30 -8 27 -18 31 -9 6 11 -22 17
-43 18 -43 2z"/>
<path d="M4394 1198 c-5 -7 -3 -8 6 -3 10 6 12 4 7 -9 -4 -10 -3 -15 3 -11 13
8 13 35 1 35 -6 0 -13 -5 -17 -12z"/>
<path d="M4430 1206 c0 -2 7 -7 16 -10 8 -3 12 -2 9 4 -6 10 -25 14 -25 6z"/>
<path d="M4511 1193 c0 -11 3 -13 6 -5 2 6 10 9 15 6 7 -4 8 -2 4 4 -11 18
-26 14 -25 -5z"/>
<path d="M4635 1200 c3 -5 8 -10 11 -10 2 0 4 5 4 10 0 6 -5 10 -11 10 -5 0
-7 -4 -4 -10z"/>
<path d="M4816 1193 c-6 -14 -5 -15 5 -6 7 7 10 15 7 18 -3 3 -9 -2 -12 -12z"/>
<path d="M4979 1208 c-5 -18 -6 -38 -1 -34 7 8 12 36 6 36 -2 0 -4 -1 -5 -2z"/>
<path d="M2630 1193 c0 -6 7 -16 15 -23 8 -7 15 -17 15 -23 0 -5 -8 -3 -18 6
-10 10 -23 17 -28 17 -4 0 2 -7 14 -16 12 -8 20 -21 16 -27 -3 -7 3 -2 14 10
18 20 20 20 36 5 9 -9 16 -11 16 -5 0 6 -7 13 -15 17 -8 3 -15 10 -15 16 0 6
5 8 10 5 6 -3 10 -1 10 4 0 17 -18 13 -28 -5 -8 -14 -11 -14 -26 7 -9 13 -16
18 -16 12z"/>
<path d="M4470 1190 c0 -5 5 -10 10 -10 6 0 10 5 10 10 0 6 -4 10 -10 10 -5 0
-10 -4 -10 -10z"/>
<path d="M2136 1182 c-3 -5 1 -9 9 -9 8 0 12 4 9 9 -3 4 -7 8 -9 8 -2 0 -6 -4
-9 -8z"/>
<path d="M2170 1180 c0 -5 5 -10 11 -10 5 0 7 5 4 10 -3 6 -8 10 -11 10 -2 0
-4 -4 -4 -10z"/>
<path d="M2266 1182 c-3 -5 1 -9 9 -9 8 0 15 4 15 9 0 4 -4 8 -9 8 -6 0 -12
-4 -15 -8z"/>
<path d="M2340 1186 c0 -2 8 -10 18 -17 15 -13 16 -12 3 4 -13 16 -21 21 -21
13z"/>
<path d="M2445 1182 c-13 -9 -17 -32 -6 -32 5 0 11 9 14 20 6 22 6 22 -8 12z"/>
<path d="M4340 1180 c0 -5 5 -10 11 -10 5 0 7 5 4 10 -3 6 -8 10 -11 10 -2 0
-4 -4 -4 -10z"/>
<path d="M4434 1182 c3 -6 3 -12 -1 -15 -5 -2 -2 -2 5 -1 6 2 12 -1 12 -6 0
-5 11 -12 25 -16 14 -3 23 -10 20 -14 -3 -5 -2 -11 3 -14 5 -3 9 2 9 11 0 9
-9 18 -19 21 -10 2 -18 7 -18 11 0 3 -9 12 -21 19 -12 8 -18 9 -15 4z"/>
<path d="M4550 1184 c0 -5 7 -18 15 -28 8 -11 15 -16 15 -10 0 5 -7 18 -15 28
-8 11 -15 16 -15 10z"/>
<path d="M4670 1174 c6 -6 6 -15 2 -19 -4 -5 -1 -5 6 -1 7 4 10 11 7 16 -3 4
1 10 7 13 7 3 3 4 -9 4 -15 -1 -19 -5 -13 -13z"/>
<path d="M4710 1186 c0 -2 7 -7 16 -10 8 -3 12 -2 9 4 -6 10 -25 14 -25 6z"/>
<path d="M4933 1175 c0 -8 4 -12 9 -9 5 3 6 10 3 15 -9 13 -12 11 -12 -6z"/>
<path d="M2508 1173 c6 -2 9 -10 6 -15 -4 -7 -2 -8 5 -4 13 9 5 26 -12 25 -9
0 -8 -2 1 -6z"/>
<path d="M4753 1165 c0 -8 4 -12 9 -9 5 3 6 10 3 15 -9 13 -12 11 -12 -6z"/>
<path d="M4490 1165 c0 -8 29 -12 39 -5 9 5 4 8 -13 8 -14 0 -26 -2 -26 -3z"/>
<path d="M4600 1155 c-19 -22 -8 -25 13 -3 9 10 13 18 8 18 -5 0 -14 -7 -21
-15z"/>
<path d="M4699 1153 c-13 -16 -12 -17 4 -4 16 13 21 21 13 21 -2 0 -10 -8 -17
-17z"/>
<path d="M2175 1140 c3 -5 8 -10 11 -10 2 0 4 5 4 10 0 6 -5 10 -11 10 -5 0
-7 -4 -4 -10z"/>
<path d="M2359 1133 c-13 -16 -12 -17 4 -4 16 13 21 21 13 21 -2 0 -10 -8 -17
-17z"/>
<path d="M2477 1133 c6 -15 4 -16 -8 -6 -12 10 -15 8 -15 -6 0 -12 5 -17 15
-13 10 4 12 1 6 -9 -4 -8 -4 -11 0 -6 13 11 16 45 5 52 -6 4 -7 -1 -3 -12z"/>
<path d="M2536 1136 c5 -13 4 -17 -4 -12 -7 4 -12 2 -12 -3 0 -14 17 -14 26 0
3 6 1 16 -5 22 -9 9 -10 7 -5 -7z"/>
<path d="M2590 1141 c0 -6 7 -8 15 -5 10 4 13 0 10 -16 -3 -15 3 -24 20 -32
13 -6 22 -15 19 -20 -3 -5 3 -12 15 -15 12 -3 21 -9 21 -14 0 -5 5 -9 10 -9
21 0 9 20 -15 26 -14 3 -22 10 -19 15 3 5 -2 12 -10 15 -9 3 -13 10 -10 15 3
5 -1 6 -9 3 -10 -4 -14 2 -13 18 1 14 -5 24 -16 26 -10 2 -18 -1 -18 -7z"/>
<path d="M4627 1133 c3 -7 6 -13 8 -13 2 0 5 6 8 13 3 8 -1 14 -8 14 -7 0 -11
-6 -8 -14z"/>
<path d="M4936 1142 c-3 -4 4 -9 15 -9 23 -2 25 3 4 10 -8 4 -16 3 -19 -1z"/>
<path d="M2570 1131 c0 -10 19 -25 25 -20 1 2 -3 10 -11 17 -8 7 -14 8 -14 3z"/>
<path d="M4350 1132 c0 -14 35 -42 51 -42 8 1 1 8 -14 16 -15 8 -25 19 -22 24
4 6 1 10 -4 10 -6 0 -11 -4 -11 -8z"/>
<path d="M4441 1135 c-1 -17 16 -38 33 -41 9 -1 16 2 16 8 0 6 -7 7 -16 4 -12
-5 -15 -2 -10 9 3 9 2 14 -3 10 -5 -3 -12 1 -14 7 -3 7 -6 9 -6 3z"/>
<path d="M4674 1125 c1 -8 8 -21 16 -28 12 -10 12 -9 2 4 -6 9 -9 18 -6 21 3
3 1 9 -4 12 -6 3 -9 -1 -8 -9z"/>
<path d="M4769 1123 c-13 -16 -12 -17 4 -4 9 7 17 15 17 17 0 8 -8 3 -21 -13z"/>
<path d="M2277 1115 c-4 -8 -3 -16 1 -19 4 -3 9 4 9 15 2 23 -3 25 -10 4z"/>
<path d="M2393 1115 c0 -8 4 -12 9 -9 5 3 6 10 3 15 -9 13 -12 11 -12 -6z"/>
<path d="M2664 1119 c-3 -6 -1 -16 5 -22 9 -9 10 -7 5 7 -5 13 -4 17 4 12 7
-4 12 -2 12 3 0 14 -17 14 -26 0z"/>
<path d="M4400 1120 c0 -5 5 -10 11 -10 5 0 7 5 4 10 -3 6 -8 10 -11 10 -2 0
-4 -4 -4 -10z"/>
<path d="M4525 1120 c3 -5 8 -10 11 -10 2 0 4 5 4 10 0 6 -5 10 -11 10 -5 0
-7 -4 -4 -10z"/>
<path d="M4796 1122 c-3 -5 1 -9 9 -9 8 0 12 4 9 9 -3 4 -7 8 -9 8 -2 0 -6 -4
-9 -8z"/>
<path d="M2555 1101 c3 -5 1 -12 -5 -16 -5 -3 -10 -11 -10 -18 0 -6 7 -2 15 9
17 23 19 34 4 34 -5 0 -8 -4 -4 -9z"/>
<path d="M4425 1093 c-5 -10 -7 -22 -6 -26 1 -5 -7 -6 -18 -2 -11 3 -22 1 -25
-4 -4 -6 5 -9 21 -8 16 1 29 8 29 15 3 25 6 26 14 7 6 -13 9 -15 9 -5 0 8 -3
21 -8 28 -6 11 -10 10 -16 -5z"/>
<path d="M4550 1100 c0 -5 5 -10 11 -10 5 0 7 5 4 10 -3 6 -8 10 -11 10 -2 0
-4 -4 -4 -10z"/>
<path d="M2420 1091 c0 -6 4 -13 10 -16 6 -3 7 1 4 9 -7 18 -14 21 -14 7z"/>
<path d="M3315 1090 c-5 -8 -4 -11 2 -7 6 4 14 0 17 -9 3 -8 10 -13 15 -10 5
3 14 -1 21 -9 6 -7 17 -12 25 -9 16 7 29 -12 15 -21 -6 -4 -8 -11 -4 -16 3 -5
10 -7 15 -4 5 4 10 1 10 -4 1 -6 2 -17 3 -23 1 -7 8 -12 15 -10 18 4 52 -28
44 -41 -3 -6 -1 -7 6 -3 9 6 9 11 1 21 -8 9 -8 15 0 20 5 3 10 3 10 -1 0 -3 7
-1 15 6 8 7 15 9 15 6 0 -4 7 -1 15 8 17 16 20 30 6 21 -14 -8 -24 13 -14 28
4 7 1 5 -8 -4 -24 -27 -45 -3 -21 25 9 11 11 16 4 12 -7 -4 -15 -1 -18 9 -6
14 -9 14 -30 0 -13 -8 -25 -11 -29 -5 -3 5 -12 7 -21 3 -9 -3 -14 0 -12 7 4
15 -29 22 -38 9 -3 -5 -10 -7 -15 -4 -5 4 -9 1 -9 -6 0 -7 -6 -5 -13 6 -11 14
-16 15 -22 5z m90 -8 c-3 -3 0 -10 5 -17 7 -8 4 -11 -10 -10 -11 1 -23 5 -27
10 -5 4 -2 4 6 0 10 -6 13 -4 9 7 -4 9 0 15 8 15 8 0 12 -3 9 -5z m67 -24 c6
6 17 8 25 5 11 -4 11 -8 3 -13 -16 -10 10 -52 27 -46 7 3 15 1 18 -5 4 -5 3
-9 -2 -8 -22 4 -34 -2 -27 -13 4 -7 4 -10 -1 -6 -4 4 -15 2 -23 -5 -10 -8 -13
-8 -9 -1 9 15 -17 25 -32 13 -6 -5 -9 -6 -6 -3 8 11 -16 45 -27 38 -5 -4 -3 5
6 18 9 14 13 29 9 33 -5 5 0 3 10 -4 13 -10 21 -11 29 -3z"/>
<path d="M3471 1043 c-9 -15 -12 -15 -19 -5 -8 11 -10 11 -14 0 -3 -8 1 -23 9
-33 12 -15 14 -16 10 -3 -6 17 16 20 30 3 4 -4 2 -5 -4 -1 -7 4 -13 3 -13 -2
0 -12 26 -23 34 -15 3 3 -2 16 -10 29 -9 13 -13 28 -9 34 3 5 4 10 1 10 -3 0
-10 -8 -15 -17z"/>
<path d="M4499 1088 c-1 -7 -1 -16 0 -20 2 -12 -17 -10 -22 2 -3 6 -4 5 -3 -2
4 -22 29 -14 32 10 2 12 2 22 -1 22 -3 0 -6 -6 -6 -12z"/>
<path d="M4530 1085 c0 -8 4 -15 10 -15 5 0 7 7 4 15 -4 8 -8 15 -10 15 -2 0
-4 -7 -4 -15z"/>
<path d="M4651 1093 c-1 -17 16 -25 25 -12 4 7 3 9 -4 5 -5 -3 -13 0 -15 6 -4
9 -6 10 -6 1z"/>
<path d="M2196 1082 c-3 -5 1 -9 9 -9 8 0 12 4 9 9 -3 4 -7 8 -9 8 -2 0 -6 -4
-9 -8z"/>
<path d="M2336 1078 c3 -4 11 -5 19 -1 21 7 19 12 -4 10 -11 0 -18 -5 -15 -9z"/>
<path d="M2580 1081 c0 -5 11 -8 25 -8 30 0 28 6 -4 12 -11 2 -21 0 -21 -4z"/>
<path d="M2715 1080 c-3 -5 -2 -17 3 -26 8 -14 10 -12 10 9 0 29 -3 33 -13 17z"/>
<path d="M4710 1081 c0 -5 8 -15 18 -22 15 -12 16 -12 5 2 -7 9 -10 19 -6 22
3 4 1 7 -5 7 -7 0 -12 -4 -12 -9z"/>
<path d="M2515 1071 c-3 -5 -2 -12 3 -15 5 -3 9 1 9 9 0 17 -3 19 -12 6z"/>
<path d="M4755 1071 c-3 -5 -2 -12 3 -15 5 -3 9 1 9 9 0 17 -3 19 -12 6z"/>
<path d="M2136 1062 c-3 -5 1 -9 9 -9 8 0 12 4 9 9 -3 4 -7 8 -9 8 -2 0 -6 -4
-9 -8z"/>
<path d="M2384 1062 c4 -3 14 -7 22 -8 9 -1 13 0 10 4 -4 3 -14 7 -22 8 -9 1
-13 0 -10 -4z"/>
<path d="M2553 1052 c-8 -14 -8 -19 1 -19 7 0 13 9 13 19 1 10 1 18 0 18 -1 0
-7 -8 -14 -18z"/>
<path d="M2740 1059 c0 -5 5 -7 10 -4 6 3 10 8 10 11 0 2 -4 4 -10 4 -5 0 -10
-5 -10 -11z"/>
<path d="M4976 1062 c-3 -5 1 -9 9 -9 8 0 12 4 9 9 -3 4 -7 8 -9 8 -2 0 -6 -4
-9 -8z"/>
<path d="M2339 1048 c15 -21 31 -23 31 -6 0 6 -3 8 -7 5 -3 -4 -13 -1 -22 6
-14 11 -14 10 -2 -5z"/>
<path d="M2592 1051 c-11 -7 -11 -9 0 -14 9 -3 15 1 15 9 0 8 -1 14 -1 14 -1
0 -7 -4 -14 -9z"/>
<path d="M2630 1050 c0 -5 5 -10 11 -10 5 0 7 5 4 10 -3 6 -8 10 -11 10 -2 0
-4 -4 -4 -10z"/>
<path d="M4515 1050 c-8 -13 3 -30 18 -30 7 0 6 4 -3 10 -13 9 -13 11 0 20 9
6 10 10 3 10 -6 0 -15 -4 -18 -10z"/>
<path d="M4694 1046 c1 -8 5 -18 8 -22 4 -3 5 1 4 10 -1 8 -5 18 -8 22 -4 3
-5 -1 -4 -10z"/>
<path d="M4869 1043 c-13 -16 -12 -17 4 -4 9 7 17 15 17 17 0 8 -8 3 -21 -13z"/>
<path d="M2256 1038 c3 -5 10 -6 15 -3 13 9 11 12 -6 12 -8 0 -12 -4 -9 -9z"/>
<path d="M2755 1040 c-3 -5 -2 -10 4 -10 5 0 13 5 16 10 3 6 2 10 -4 10 -5 0
-13 -4 -16 -10z"/>
<path d="M4417 1038 c-7 -5 0 -6 17 -4 16 3 31 7 33 10 8 8 -37 2 -50 -6z"/>
<path d="M4628 1036 c3 -6 7 -26 7 -43 1 -18 4 -35 6 -38 3 -3 5 17 5 43 -1
31 -5 49 -13 49 -7 0 -9 -5 -5 -11z"/>
<path d="M4806 1042 c-3 -5 1 -9 9 -9 8 0 12 4 9 9 -3 4 -7 8 -9 8 -2 0 -6 -4
-9 -8z"/>
<path d="M5120 1040 c-9 -6 -10 -10 -3 -10 6 0 15 5 18 10 8 12 4 12 -15 0z"/>
<path d="M4395 1023 c5 -19 3 -22 -12 -17 -15 5 -15 4 -3 -5 21 -14 35 3 21
26 -11 16 -11 16 -6 -4z"/>
<path d="M4550 1036 c0 -2 7 -9 15 -16 13 -11 14 -10 9 4 -5 14 -24 23 -24 12z"/>
<path d="M2420 1024 c0 -1 8 -8 17 -15 9 -8 14 -9 10 -2 -4 6 -1 13 5 16 7 3
3 4 -9 4 -13 -1 -23 -2 -23 -3z"/>
<path d="M2575 1021 c-9 -16 13 -23 35 -11 11 6 20 13 20 16 0 2 -9 0 -19 -6
-25 -13 -34 -13 -26 0 3 6 4 10 1 10 -3 0 -7 -4 -11 -9z"/>
<path d="M2648 1023 c6 -2 9 -10 6 -15 -4 -7 -2 -8 5 -4 13 9 5 26 -12 25 -9
0 -8 -2 1 -6z"/>
<path d="M4455 1021 c-3 -5 0 -13 6 -17 8 -4 9 -3 5 4 -11 19 5 14 21 -5 13
-16 13 -16 3 5 -11 23 -25 28 -35 13z"/>
<path d="M4660 1026 c0 -2 8 -10 18 -17 15 -13 16 -12 3 4 -13 16 -21 21 -21
13z"/>
<path d="M4890 1019 c0 -5 5 -7 10 -4 6 3 10 8 10 11 0 2 -4 4 -10 4 -5 0 -10
-5 -10 -11z"/>
<path d="M2677 1007 c-3 -8 1 -14 8 -14 7 0 11 6 8 14 -3 7 -6 13 -8 13 -2 0
-5 -6 -8 -13z"/>
<path d="M3585 1009 c-4 -6 -4 -13 -1 -16 3 -4 6 -1 6 7 0 10 4 10 18 -1 15
-13 16 -12 3 4 -16 20 -18 20 -26 6z"/>
<path d="M4430 1005 c0 -8 4 -15 10 -15 5 0 7 7 4 15 -4 8 -8 15 -10 15 -2 0
-4 -7 -4 -15z"/>
<path d="M2459 993 c-13 -16 -12 -17 4 -4 16 13 21 21 13 21 -2 0 -10 -8 -17
-17z"/>
<path d="M2510 999 c0 -5 5 -7 10 -4 6 3 10 8 10 11 0 2 -4 4 -10 4 -5 0 -10
-5 -10 -11z"/>
<path d="M2630 1005 c0 -5 5 -17 10 -25 5 -8 10 -10 10 -5 0 6 -5 17 -10 25
-5 8 -10 11 -10 5z"/>
<path d="M4310 1000 c0 -5 5 -10 10 -10 6 0 10 5 10 10 0 6 -4 10 -10 10 -5 0
-10 -4 -10 -10z"/>
<path d="M4516 995 c-9 -26 -7 -32 5 -12 6 10 9 21 6 23 -2 3 -7 -2 -11 -11z"/>
<path d="M4776 993 c-6 -14 -5 -15 5 -6 7 7 10 15 7 18 -3 3 -9 -2 -12 -12z"/>
<path d="M2480 975 c-7 -8 -17 -12 -24 -8 -6 3 -7 2 -3 -2 4 -5 15 -10 23 -11
9 -1 13 0 10 3 -3 4 -1 12 5 20 6 7 9 13 6 13 -2 0 -10 -7 -17 -15z"/>
<path d="M2550 980 c0 -5 5 -10 10 -10 6 0 10 5 10 10 0 6 -4 10 -10 10 -5 0
-10 -4 -10 -10z"/>
<path d="M2600 986 c0 -2 7 -7 16 -10 8 -3 12 -2 9 4 -6 10 -25 14 -25 6z"/>
<path d="M4328 967 c-5 -10 -7 -21 -5 -24 3 -2 8 4 11 14 3 10 15 19 25 20 14
1 18 -3 14 -15 -4 -14 -3 -14 5 -2 6 8 9 17 6 21 -8 14 -46 5 -56 -14z"/>
<path d="M4455 979 c-4 -6 -5 -12 -2 -15 2 -3 7 2 10 11 7 17 1 20 -8 4z"/>
<path d="M4561 967 c6 -10 13 -16 16 -13 4 3 16 -2 27 -11 21 -18 21 -18 2 4
-10 13 -23 20 -29 16 -6 -4 -8 0 -5 9 4 8 0 15 -7 15 -11 0 -11 -5 -4 -20z"/>
<path d="M4590 986 c0 -2 7 -7 16 -10 8 -3 12 -2 9 4 -6 10 -25 14 -25 6z"/>
<path d="M4679 973 c-13 -16 -12 -17 4 -4 9 7 17 15 17 17 0 8 -8 3 -21 -13z"/>
<path d="M4715 981 c-3 -5 -2 -12 3 -15 5 -3 9 1 9 9 0 17 -3 19 -12 6z"/>
<path d="M2409 963 c-13 -16 -12 -17 4 -4 16 13 21 21 13 21 -2 0 -10 -8 -17
-17z"/>
<path d="M2645 958 l-20 -21 23 12 c12 6 22 16 22 21 0 13 -2 12 -25 -12z"/>
<path d="M2681 957 c-13 -21 -12 -21 5 -5 10 10 16 20 13 22 -3 3 -11 -5 -18
-17z"/>
<path d="M4533 965 c0 -8 4 -12 9 -9 5 3 6 10 3 15 -9 13 -12 11 -12 -6z"/>
<path d="M2355 961 c-3 -5 -2 -12 3 -15 5 -3 9 1 9 9 0 17 -3 19 -12 6z"/>
<path d="M4410 960 c8 -5 20 -10 25 -10 6 0 3 5 -5 10 -8 5 -19 10 -25 10 -5
0 -3 -5 5 -10z"/>
<path d="M4835 960 c3 -5 8 -10 11 -10 2 0 4 5 4 10 0 6 -5 10 -11 10 -5 0 -7
-4 -4 -10z"/>
<path d="M2509 943 c-13 -16 -12 -17 4 -4 16 13 21 21 13 21 -2 0 -10 -8 -17
-17z"/>
<path d="M2259 948 c-5 -18 -6 -38 -1 -34 7 8 12 36 6 36 -2 0 -4 -1 -5 -2z"/>
<path d="M4390 941 c0 -5 8 -15 18 -22 15 -12 16 -12 5 2 -7 9 -10 19 -6 22 3
4 1 7 -5 7 -7 0 -12 -4 -12 -9z"/>
<path d="M2453 927 c0 -8 6 -14 14 -14 9 0 10 4 2 14 -6 7 -12 13 -14 13 -1 0
-2 -6 -2 -13z"/>
<path d="M2574 919 c0 -14 3 -16 16 -6 8 6 16 12 18 13 1 1 -5 4 -15 6 -13 4
-19 0 -19 -13z"/>
<path d="M4477 933 c-10 -9 -9 -23 1 -23 5 0 9 7 9 15 0 17 -1 18 -10 8z"/>
<path d="M4508 933 c7 -3 16 -2 19 1 4 3 -2 6 -13 5 -11 0 -14 -3 -6 -6z"/>
<path d="M4573 927 c0 -8 6 -14 14 -14 9 0 10 4 2 14 -6 7 -12 13 -14 13 -1 0
-2 -6 -2 -13z"/>
<path d="M2194 922 c4 -3 14 -7 22 -8 9 -1 13 0 10 4 -4 3 -14 7 -22 8 -9 1
-13 0 -10 -4z"/>
<path d="M2520 925 c0 -2 6 -8 13 -14 10 -8 14 -7 14 2 0 8 -6 14 -14 14 -7 0
-13 -1 -13 -2z"/>
<path d="M2660 920 c-9 -6 -10 -10 -3 -10 6 0 15 5 18 10 8 12 4 12 -15 0z"/>
<path d="M4315 921 c3 -2 -3 -9 -12 -16 -13 -10 -14 -13 -2 -20 8 -5 11 -4 6
0 -4 5 5 16 20 26 25 16 25 18 5 16 -11 0 -19 -3 -17 -6z"/>
<path d="M4365 920 c3 -5 8 -10 11 -10 2 0 4 5 4 10 0 6 -5 10 -11 10 -5 0 -7
-4 -4 -10z"/>
<path d="M4700 926 c0 -2 8 -10 18 -17 15 -13 16 -12 3 4 -13 16 -21 21 -21
13z"/>
<path d="M2600 895 c-7 -8 -16 -13 -19 -10 -4 2 -8 -2 -8 -10 0 -10 4 -12 12
-5 7 5 15 8 18 5 4 -3 5 -2 2 2 -3 3 0 12 6 20 6 7 9 13 6 13 -2 0 -10 -7 -17
-15z"/>
<path d="M4255 900 c-3 -5 -1 -18 5 -27 9 -15 10 -14 4 6 -4 17 -3 21 6 16 9
-5 11 -4 6 3 -9 15 -13 15 -21 2z"/>
<path d="M4433 895 c0 -8 4 -12 9 -9 5 3 6 10 3 15 -9 13 -12 11 -12 -6z"/>
<path d="M4553 895 c0 -8 4 -12 9 -9 5 3 6 10 3 15 -9 13 -12 11 -12 -6z"/>
<path d="M4819 908 c-5 -18 -6 -38 -1 -34 7 8 12 36 6 36 -2 0 -4 -1 -5 -2z"/>
<path d="M4150 890 c0 -5 5 -10 10 -10 6 0 10 5 10 10 0 6 -4 10 -10 10 -5 0
-10 -4 -10 -10z"/>
<path d="M4411 884 c0 -11 3 -14 6 -6 3 7 2 16 -1 19 -3 4 -6 -2 -5 -13z"/>
<path d="M2514 882 c4 -3 14 -7 22 -8 9 -1 13 0 10 4 -4 3 -14 7 -22 8 -9 1
-13 0 -10 -4z"/>
<path d="M3880 881 c0 -10 39 -11 45 -2 2 5 -7 9 -20 9 -14 0 -25 -3 -25 -7z"/>
<path d="M4120 880 c-9 -6 -10 -10 -3 -10 6 0 15 5 18 10 8 12 4 12 -15 0z"/>
<path d="M4330 886 c0 -2 7 -7 16 -10 8 -3 12 -2 9 4 -6 10 -25 14 -25 6z"/>
<path d="M2373 865 c0 -8 4 -12 9 -9 5 3 6 10 3 15 -9 13 -12 11 -12 -6z"/>
<path d="M3145 869 c-11 -16 -1 -19 13 -3 7 8 8 14 3 14 -5 0 -13 -5 -16 -11z"/>
<path d="M3090 859 c0 -5 -5 -7 -12 -3 -7 4 -8 3 -4 -4 4 -7 3 -12 -3 -12 -5
0 -12 5 -14 10 -3 6 -4 5 -3 -2 1 -7 12 -14 24 -14 12 -1 28 -6 35 -13 8 -6
17 -8 20 -4 4 3 7 1 7 -4 0 -6 -5 -14 -10 -16 -6 -3 -5 -4 2 -3 16 3 17 31 1
31 -6 0 -15 3 -19 8 -4 4 -2 7 4 7 7 0 12 5 12 12 0 9 -3 9 -12 0 -17 -17 -33
-15 -18 3 9 10 9 15 1 15 -6 0 -11 -5 -11 -11z"/>
<path d="M3166 851 c-11 -12 -14 -21 -8 -21 7 0 12 5 12 11 0 6 6 9 13 6 8 -3
20 -1 28 5 11 8 11 9 -3 5 -9 -3 -18 -1 -20 4 -2 6 -12 1 -22 -10z"/>
<path d="M4080 858 c-12 -8 -11 -9 4 -4 13 5 17 2 12 -9 -3 -8 -1 -15 4 -15
12 0 13 27 2 34 -4 2 -14 0 -22 -6z"/>
<path d="M4135 862 c-9 -9 -5 -32 5 -32 5 0 7 6 4 14 -6 16 27 17 38 1 12 -15
9 -27 -4 -19 -7 4 -8 3 -4 -4 4 -6 13 -9 21 -6 13 5 13 9 0 27 -13 19 -49 30
-60 19z"/>
<path d="M4230 860 c0 -5 5 -10 10 -10 6 0 10 5 10 10 0 6 -4 10 -10 10 -5 0
-10 -4 -10 -10z"/>
<path d="M4295 860 c-3 -6 1 -13 10 -16 11 -5 13 -10 5 -19 -7 -8 -5 -12 5
-12 8 0 13 3 10 5 -3 3 3 15 12 26 10 12 11 16 4 9 -15 -13 -44 -6 -35 8 3 5
3 9 0 9 -3 0 -8 -5 -11 -10z"/>
<path d="M4460 866 c0 -2 8 -10 18 -17 15 -13 16 -12 3 4 -13 16 -21 21 -21
13z"/>
<path d="M4650 859 c0 -5 5 -7 10 -4 6 3 10 8 10 11 0 2 -4 4 -10 4 -5 0 -10
-5 -10 -11z"/>
<path d="M4720 860 c-12 -7 -10 -9 7 -7 12 0 19 5 17 9 -6 10 -6 10 -24 -2z"/>
<path d="M4776 862 c-3 -5 1 -9 9 -9 8 0 12 4 9 9 -3 4 -7 8 -9 8 -2 0 -6 -4
-9 -8z"/>
<path d="M3966 845 c-9 -26 -7 -32 5 -12 6 10 9 21 6 23 -2 3 -7 -2 -11 -11z"/>
<path d="M4050 845 c0 -8 4 -15 10 -15 5 0 7 7 4 15 -4 8 -8 15 -10 15 -2 0
-4 -7 -4 -15z"/>
<path d="M2970 845 c0 -8 29 -12 39 -5 9 5 4 8 -13 8 -14 0 -26 -2 -26 -3z"/>
<path d="M3223 842 c-9 -6 -7 -11 7 -20 12 -7 20 -8 20 -2 0 5 -5 10 -11 10
-5 0 -7 5 -4 10 7 12 4 12 -12 2z"/>
<path d="M4031 837 c-1 -11 -6 -15 -13 -11 -7 5 -8 3 -3 -5 10 -16 29 2 22 21
-4 8 -6 7 -6 -5z"/>
<path d="M4430 839 c0 -5 5 -7 10 -4 6 3 10 8 10 11 0 2 -4 4 -10 4 -5 0 -10
-5 -10 -11z"/>
<path d="M2353 825 c0 -8 4 -12 9 -9 5 3 6 10 3 15 -9 13 -12 11 -12 -6z"/>
<path d="M2941 836 c2 -2 15 -9 29 -15 24 -11 24 -11 6 3 -16 13 -49 24 -35
12z"/>
<path d="M3036 827 c3 -10 9 -15 12 -12 3 3 0 11 -7 18 -10 9 -11 8 -5 -6z"/>
<path d="M4347 826 c-4 -10 -1 -13 8 -9 8 3 12 9 9 14 -7 12 -11 11 -17 -5z"/>
<path d="M4655 831 c-3 -5 -2 -12 3 -15 5 -3 9 1 9 9 0 17 -3 19 -12 6z"/>
<path d="M2394 822 c4 -3 14 -7 22 -8 9 -1 13 0 10 4 -4 3 -14 7 -22 8 -9 1
-13 0 -10 -4z"/>
<path d="M2455 820 c3 -5 8 -10 11 -10 2 0 4 5 4 10 0 6 -5 10 -11 10 -5 0 -7
-4 -4 -10z"/>
<path d="M2600 820 c-9 -6 -10 -10 -3 -10 6 0 15 5 18 10 8 12 4 12 -15 0z"/>
<path d="M3005 819 c-5 -8 -4 -10 3 -5 8 5 12 -1 13 -16 1 -18 2 -19 6 -4 6
23 -12 43 -22 25z"/>
<path d="M3170 815 c-11 -13 -10 -14 4 -9 9 3 16 10 16 15 0 13 -6 11 -20 -6z"/>
<path d="M3550 821 c0 -5 7 -15 17 -22 15 -13 15 -12 4 9 -12 23 -21 28 -21
13z"/>
<path d="M3820 819 c0 -5 4 -8 9 -5 4 3 23 -6 41 -19 34 -25 40 -28 40 -21 0
5 -75 56 -83 56 -4 0 -7 -5 -7 -11z"/>
<path d="M3920 815 c-19 -23 -8 -25 14 -4 11 11 15 19 9 19 -6 0 -16 -7 -23
-15z"/>
<path d="M3073 806 c-9 -11 -9 -15 0 -19 7 -3 14 3 14 14 2 22 2 22 -14 5z"/>
<path d="M3192 804 c-7 -8 -8 -14 -3 -14 10 0 25 19 20 25 -2 1 -10 -3 -17
-11z"/>
<path d="M3263 802 c-2 -10 -13 -18 -23 -19 -13 -1 -17 3 -13 15 4 14 3 14 -5
2 -14 -19 -6 -29 20 -27 11 1 23 9 26 19 2 10 9 15 15 11 6 -3 7 -1 3 5 -10
17 -17 15 -23 -6z"/>
<path d="M3602 808 c-7 -7 -12 -17 -12 -22 0 -6 5 -3 11 7 5 9 15 17 21 17 7
0 6 -6 -2 -15 -7 -9 -10 -18 -7 -22 4 -3 9 2 13 11 3 9 10 13 15 10 5 -3 9 -1
9 4 0 6 -7 13 -16 16 -20 8 -18 8 -32 -6z"/>
<path d="M3802 800 c0 -14 2 -19 5 -12 2 6 2 18 0 25 -3 6 -5 1 -5 -13z"/>
<path d="M4068 813 c6 -2 18 -2 25 0 6 3 1 5 -13 5 -14 0 -19 -2 -12 -5z"/>
<path d="M4115 810 c-3 -6 1 -7 9 -4 18 7 21 14 7 14 -6 0 -13 -4 -16 -10z"/>
<path d="M4153 805 c0 -8 4 -12 9 -9 5 3 6 10 3 15 -9 13 -12 11 -12 -6z"/>
<path d="M2910 806 c0 -2 7 -7 16 -10 8 -3 12 -2 9 4 -6 10 -25 14 -25 6z"/>
<path d="M3940 800 c-9 -6 -10 -10 -3 -10 6 0 15 5 18 10 8 12 4 12 -15 0z"/>
<path d="M3970 800 c0 -5 5 -10 10 -10 6 0 10 5 10 10 0 6 -4 10 -10 10 -5 0
-10 -4 -10 -10z"/>
<path d="M4035 801 c-6 -11 13 -26 22 -17 4 3 1 6 -6 6 -7 0 -9 5 -6 10 3 6 4
10 1 10 -3 0 -7 -4 -11 -9z"/>
<path d="M4230 802 c0 -4 11 -8 25 -8 28 0 24 8 -5 13 -11 2 -20 -1 -20 -5z"/>
<path d="M3830 790 c0 -5 7 -10 16 -10 8 0 13 -4 9 -9 -3 -5 -1 -12 4 -15 5
-4 8 1 7 10 -3 19 -36 41 -36 24z"/>
<path d="M2510 785 c0 -7 30 -13 34 -7 3 4 -4 9 -15 9 -10 1 -19 0 -19 -2z"/>
<path d="M3150 780 c0 -5 5 -10 10 -10 6 0 10 5 10 10 0 6 -4 10 -10 10 -5 0
-10 -4 -10 -10z"/>
<path d="M3272 769 c-7 -12 -11 -24 -8 -27 3 -3 6 0 6 7 0 7 4 10 8 7 4 -2 9
4 9 15 2 24 1 24 -15 -2z"/>
<path d="M3555 781 c3 -5 2 -11 -2 -14 -5 -2 -3 -3 3 -1 7 1 21 -4 33 -12 11
-8 21 -12 21 -7 0 4 -14 16 -31 25 -16 10 -27 14 -24 9z"/>
<path d="M3647 776 c-9 -7 -17 -18 -17 -25 0 -6 9 -2 21 10 24 24 22 33 -4 15z"/>
<path d="M4110 764 c5 -12 6 -24 4 -27 -3 -3 -1 -8 5 -11 6 -4 8 2 6 15 -3 13
0 28 5 34 6 7 3 11 -9 11 -15 0 -17 -5 -11 -22z"/>
<path d="M4615 781 c-3 -5 -2 -12 3 -15 5 -3 9 1 9 9 0 17 -3 19 -12 6z"/>
<path d="M2810 776 c0 -2 8 -10 18 -17 15 -13 16 -12 3 4 -13 16 -21 21 -21
13z"/>
<path d="M2937 769 c7 -7 15 -10 18 -7 3 3 -2 9 -12 12 -14 6 -15 5 -6 -5z"/>
<path d="M3950 769 c0 -5 5 -7 10 -4 6 3 10 8 10 11 0 2 -4 4 -10 4 -5 0 -10
-5 -10 -11z"/>
<path d="M3993 773 c4 -3 -1 -12 -11 -20 -15 -13 -15 -13 4 -4 15 7 25 7 34
-2 9 -9 8 -6 -1 11 -8 12 -18 22 -23 22 -5 0 -6 -3 -3 -7z"/>
<path d="M4296 767 c3 -10 9 -15 12 -12 3 3 0 11 -7 18 -10 9 -11 8 -5 -6z"/>
<path d="M2913 751 c0 -11 5 -18 9 -15 4 3 5 11 1 19 -7 21 -12 19 -10 -4z"/>
<path d="M2970 760 c0 -5 5 -10 10 -10 6 0 10 5 10 10 0 6 -4 10 -10 10 -5 0
-10 -4 -10 -10z"/>
<path d="M3030 766 c0 -2 7 -7 16 -10 8 -3 12 -2 9 4 -6 10 -25 14 -25 6z"/>
<path d="M3121 756 c-9 -10 -8 -15 3 -19 11 -4 13 -1 9 10 -5 12 -3 14 7 8 9
-5 11 -4 6 3 -9 15 -11 15 -25 -2z"/>
<path d="M3176 761 c-4 -5 3 -7 14 -4 23 6 26 13 6 13 -8 0 -17 -4 -20 -9z"/>
<path d="M3330 760 c0 -5 5 -10 11 -10 5 0 7 5 4 10 -3 6 -8 10 -11 10 -2 0
-4 -4 -4 -10z"/>
<path d="M3675 760 c-3 -4 -2 -15 1 -24 4 -11 0 -14 -16 -11 -13 2 -20 1 -16
-2 4 -4 18 -8 31 -9 20 -1 22 2 15 17 -14 24 -12 29 5 23 8 -4 15 -4 15 -1 0
10 -29 16 -35 7z"/>
<path d="M4326 758 c3 -5 10 -6 15 -3 13 9 11 12 -6 12 -8 0 -12 -4 -9 -9z"/>
<path d="M3797 749 c7 -7 15 -10 18 -7 3 3 -2 9 -12 12 -14 6 -15 5 -6 -5z"/>
<path d="M3896 751 c-3 -4 6 -6 19 -3 14 2 25 6 25 8 0 8 -39 4 -44 -5z"/>
<path d="M2840 740 c-9 -6 -10 -10 -3 -10 6 0 15 5 18 10 8 12 4 12 -15 0z"/>
<path d="M3083 735 c-3 -9 -3 -18 -1 -21 3 -3 8 4 11 16 6 23 -1 27 -10 5z"/>
<path d="M3198 743 c7 -3 16 -2 19 1 4 3 -2 6 -13 5 -11 0 -14 -3 -6 -6z"/>
<path d="M3296 742 c-2 -4 -1 -14 3 -21 6 -9 11 -10 15 -2 4 6 2 11 -4 11 -6
0 -8 5 -5 10 3 6 4 10 1 10 -3 0 -7 -4 -10 -8z"/>
<path d="M3534 738 c-3 -5 -3 -12 0 -15 3 -4 6 -2 6 3 0 5 9 10 21 11 16 1 18
-1 10 -11 -8 -9 -7 -13 3 -13 8 0 13 7 11 16 -2 17 -42 24 -51 9z"/>
<path d="M3835 740 c3 -5 8 -10 11 -10 2 0 4 5 4 10 0 6 -5 10 -11 10 -5 0 -7
-4 -4 -10z"/>
<path d="M4036 735 c-9 -26 -7 -32 5 -12 6 10 9 21 6 23 -2 3 -7 -2 -11 -11z"/>
<path d="M4475 739 c-3 -4 2 -6 10 -5 21 3 28 13 10 13 -9 0 -18 -4 -20 -8z"/>
<path d="M3054 720 c0 -13 4 -16 10 -10 7 7 7 13 0 20 -6 6 -10 3 -10 -10z"/>
<path d="M3156 727 c3 -10 9 -15 12 -12 3 3 0 11 -7 18 -10 9 -11 8 -5 -6z"/>
<path d="M3347 727 c-3 -8 1 -14 9 -14 16 0 19 13 5 21 -5 3 -11 0 -14 -7z"/>
<path d="M3501 724 c0 -11 3 -14 6 -6 3 7 2 16 -1 19 -3 4 -6 -2 -5 -13z"/>
<path d="M3716 714 c1 -14 -5 -28 -14 -34 -10 -5 -12 -10 -6 -10 6 0 17 7 24
15 7 8 9 15 5 15 -4 0 -2 6 4 14 9 10 8 15 -2 19 -10 4 -13 -2 -11 -19z"/>
<path d="M3857 721 c-4 -17 -3 -21 5 -13 5 5 8 16 6 23 -3 8 -7 3 -11 -10z"/>
<path d="M4295 720 c2 -27 10 -33 12 -10 1 11 -2 22 -6 24 -4 3 -7 -4 -6 -14z"/>
<path d="M2395 720 c-3 -5 -1 -10 4 -10 6 0 11 5 11 10 0 6 -2 10 -4 10 -3 0
-8 -4 -11 -10z"/>
<path d="M3206 718 c3 -5 10 -6 15 -3 13 9 11 12 -6 12 -8 0 -12 -4 -9 -9z"/>
<path d="M3605 720 c-3 -6 1 -7 9 -4 18 7 21 14 7 14 -6 0 -13 -4 -16 -10z"/>
<path d="M3800 720 c-8 -5 -10 -10 -5 -10 6 0 17 5 25 10 8 5 11 10 5 10 -5 0
-17 -5 -25 -10z"/>
<path d="M3951 727 c2 -1 13 -9 24 -17 19 -14 19 -14 6 3 -7 9 -18 17 -24 17
-6 0 -8 -1 -6 -3z"/>
<path d="M3626 703 c6 -4 10 -20 9 -35 -1 -15 1 -25 5 -23 13 8 4 59 -10 63
-10 2 -11 1 -4 -5z"/>
<path d="M3879 693 c-13 -16 -12 -17 4 -4 16 13 21 21 13 21 -2 0 -10 -8 -17
-17z"/>
<path d="M4110 699 c0 -5 5 -7 10 -4 6 3 10 8 10 11 0 2 -4 4 -10 4 -5 0 -10
-5 -10 -11z"/>
<path d="M3289 683 c-13 -16 -12 -17 4 -4 16 13 21 21 13 21 -2 0 -10 -8 -17
-17z"/>
<path d="M3502 680 c0 -14 2 -19 5 -12 2 6 2 18 0 25 -3 6 -5 1 -5 -13z"/>
<path d="M3775 689 c-4 -6 -14 -8 -24 -4 -13 5 -14 4 -3 -6 10 -11 15 -10 29
4 10 9 14 17 11 17 -4 0 -10 -5 -13 -11z"/>
<path d="M4633 685 c0 -8 4 -15 9 -15 4 0 8 4 8 9 0 6 -4 12 -8 15 -5 3 -9 -1
-9 -9z"/>
<path d="M2480 680 c-9 -6 -10 -10 -3 -10 6 0 15 5 18 10 8 12 4 12 -15 0z"/>
<path d="M2815 680 c-3 -5 -1 -10 4 -10 6 0 11 5 11 10 0 6 -2 10 -4 10 -3 0
-8 -4 -11 -10z"/>
<path d="M3233 675 c0 -8 4 -12 9 -9 4 3 8 9 8 15 0 5 -4 9 -8 9 -5 0 -9 -7
-9 -15z"/>
<path d="M3327 679 c7 -7 15 -10 18 -7 3 3 -2 9 -12 12 -14 6 -15 5 -6 -5z"/>
<path d="M3938 672 c-12 -15 -11 -16 4 -4 9 8 22 11 27 8 5 -4 12 -3 15 2 10
16 -33 10 -46 -6z"/>
<path d="M2935 660 c3 -5 8 -10 11 -10 2 0 4 5 4 10 0 6 -5 10 -11 10 -5 0 -7
-4 -4 -10z"/>
<path d="M3190 662 c0 -5 7 -9 15 -9 8 0 12 4 9 9 -3 4 -9 8 -15 8 -5 0 -9 -4
-9 -8z"/>
<path d="M4256 662 c-3 -5 1 -9 9 -9 8 0 12 4 9 9 -3 4 -7 8 -9 8 -2 0 -6 -4
-9 -8z"/>
<path d="M3536 647 c3 -10 9 -15 12 -12 3 3 0 11 -7 18 -10 9 -11 8 -5 -6z"/>
<path d="M3569 643 c-13 -16 -12 -17 4 -4 16 13 21 21 13 21 -2 0 -10 -8 -17
-17z"/>
<path d="M2896 642 c-3 -5 1 -9 9 -9 8 0 12 4 9 9 -3 4 -7 8 -9 8 -2 0 -6 -4
-9 -8z"/>
<path d="M3013 631 c0 -11 5 -18 9 -15 4 3 5 11 1 19 -7 21 -12 19 -10 -4z"/>
<path d="M3246 638 c3 -5 10 -6 15 -3 13 9 11 12 -6 12 -8 0 -12 -4 -9 -9z"/>
<path d="M3850 619 c0 -5 5 -7 10 -4 6 3 10 8 10 11 0 2 -4 4 -10 4 -5 0 -10
-5 -10 -11z"/>
<path d="M3895 620 c3 -5 8 -10 11 -10 2 0 4 5 4 10 0 6 -5 10 -11 10 -5 0 -7
-4 -4 -10z"/>
<path d="M3935 620 c3 -5 8 -10 11 -10 2 0 4 5 4 10 0 6 -5 10 -11 10 -5 0 -7
-4 -4 -10z"/>
<path d="M4074 622 c4 -3 14 -7 22 -8 9 -1 13 0 10 4 -4 3 -14 7 -22 8 -9 1
-13 0 -10 -4z"/>
<path d="M3115 611 c-3 -5 -2 -12 3 -15 5 -3 9 1 9 9 0 17 -3 19 -12 6z"/>
<path d="M3067 599 c7 -7 15 -10 18 -7 3 3 -2 9 -12 12 -14 6 -15 5 -6 -5z"/>
<path d="M3373 591 c0 -11 5 -18 9 -15 4 3 5 11 1 19 -7 21 -12 19 -10 -4z"/>
<path d="M3615 591 c-3 -5 -2 -12 3 -15 5 -3 9 1 9 9 0 17 -3 19 -12 6z"/>
<path d="M3670 597 c0 -2 6 -10 14 -16 11 -9 16 -9 22 1 4 7 4 10 -1 6 -4 -4
-14 -3 -22 3 -7 6 -13 9 -13 6z"/>
<path d="M3750 597 c0 -2 6 -10 14 -16 11 -9 16 -9 22 1 4 7 4 10 -1 6 -4 -4
-14 -3 -22 3 -7 6 -13 9 -13 6z"/>
<path d="M3336 582 c-3 -5 1 -9 9 -9 8 0 12 4 9 9 -3 4 -7 8 -9 8 -2 0 -6 -4
-9 -8z"/>
<path d="M3535 580 c3 -5 8 -10 11 -10 2 0 4 5 4 10 0 6 -5 10 -11 10 -5 0 -7
-4 -4 -10z"/>
<path d="M3816 582 c-3 -5 1 -9 9 -9 8 0 12 4 9 9 -3 4 -7 8 -9 8 -2 0 -6 -4
-9 -8z"/>
<path d="M4115 561 c-3 -5 -2 -12 3 -15 5 -3 9 1 9 9 0 17 -3 19 -12 6z"/>
<path d="M2956 482 c-3 -5 1 -9 9 -9 8 0 12 4 9 9 -3 4 -7 8 -9 8 -2 0 -6 -4
-9 -8z"/>
<path d="M3615 481 c-3 -5 -2 -12 3 -15 5 -3 9 1 9 9 0 17 -3 19 -12 6z"/>
</g>
</svg>
